<svg width="15" height="15" viewBox="0 0 15 15" fill="none" xmlns="http://www.w3.org/2000/svg">
<path d="M12.9149 11.7319C12.9149 11.7319 12.1907 12.4431 12.0132 12.6517C11.7242 12.9602 11.3836 13.1058 10.937 13.1058C10.8941 13.1058 10.8483 13.1058 10.8054 13.103C9.95525 13.0487 9.16525 12.7174 8.57275 12.4346C6.95269 11.6519 5.53012 10.5408 4.34799 9.1325C3.37194 7.9585 2.71933 6.87306 2.28712 5.70761C2.02093 4.99634 1.92361 4.44219 1.96654 3.91946C1.99517 3.58525 2.12397 3.30818 2.36154 3.07109L3.33759 2.09704C3.47784 1.96564 3.62669 1.89423 3.77266 1.89423C3.95299 1.89423 4.09897 2.00277 4.19056 2.09418C4.19342 2.09704 4.19629 2.09989 4.19915 2.10275C4.37375 2.26557 4.53976 2.4341 4.71436 2.61406C4.80309 2.70546 4.89469 2.79687 4.98628 2.89113L5.76769 3.67094C6.0711 3.97373 6.0711 4.25366 5.76769 4.55645C5.68469 4.63929 5.60454 4.72213 5.52154 4.80211C5.2811 5.04776 5.46997 4.85927 5.22096 5.08208C5.21523 5.08779 5.20951 5.09064 5.20664 5.09636C4.96048 5.34201 5.00628 5.58196 5.0578 5.74478C5.06066 5.75334 5.06352 5.76191 5.06639 5.77048C5.26961 6.26181 5.55584 6.72456 5.99092 7.27581L5.99378 7.27869C6.78375 8.24988 7.61669 9.00688 8.5355 9.58669C8.65287 9.661 8.77306 9.721 8.88756 9.77813C8.99062 9.8295 9.08794 9.87806 9.17094 9.9295C9.18237 9.93519 9.19381 9.94375 9.20531 9.9495C9.30262 9.99806 9.39419 10.0209 9.48869 10.0209C9.72625 10.0209 9.87506 9.87238 9.92375 9.82381L10.4848 9.26388C10.5821 9.16675 10.7367 9.04969 10.917 9.04969C11.0944 9.04969 11.2404 9.16106 11.3292 9.25819C11.332 9.26106 11.332 9.26106 11.3349 9.26388L12.912 10.8378C13.2068 11.1292 12.9149 11.7319 12.9149 11.7319Z" stroke="white" stroke-width="1.5" stroke-linecap="round" stroke-linejoin="round"/>
</svg>
