<svg width="20" height="20" viewBox="0 0 20 20" fill="none" xmlns="http://www.w3.org/2000/svg">
<path d="M10.8565 1.66669C11.794 1.66919 12.2698 1.67419 12.6807 1.68585L12.8423 1.69169C13.029 1.69835 13.2132 1.70669 13.4357 1.71669C14.3223 1.75835 14.9273 1.89835 15.4582 2.10419C16.0082 2.31585 16.4715 2.60252 16.9348 3.06502C17.3586 3.4816 17.6865 3.98551 17.8957 4.54169C18.1015 5.07252 18.2415 5.67752 18.2832 6.56502C18.2932 6.78669 18.3015 6.97085 18.3082 7.15835L18.3132 7.32002C18.3257 7.73002 18.3307 8.20585 18.3323 9.14335L18.3332 9.76502V10.8567C18.3352 11.4645 18.3288 12.0723 18.314 12.68L18.309 12.8417C18.3023 13.0292 18.294 13.2133 18.284 13.435C18.2423 14.3225 18.1007 14.9267 17.8957 15.4583C17.6871 16.0148 17.3591 16.5188 16.9348 16.935C16.5181 17.3586 16.0143 17.6865 15.4582 17.8958C14.9273 18.1017 14.3223 18.2417 13.4357 18.2833C13.2379 18.2926 13.0401 18.301 12.8423 18.3083L12.6807 18.3133C12.2698 18.325 11.794 18.3308 10.8565 18.3325L10.2348 18.3333H9.144C8.53588 18.3354 7.92777 18.329 7.31983 18.3142L7.15816 18.3092C6.96034 18.3017 6.76256 18.2931 6.56483 18.2833C5.67816 18.2417 5.07316 18.1017 4.5415 17.8958C3.98539 17.687 3.48168 17.359 3.06566 16.935C2.64153 16.5186 2.31335 16.0146 2.104 15.4583C1.89816 14.9275 1.75816 14.3225 1.7165 13.435C1.70721 13.2373 1.69888 13.0395 1.6915 12.8417L1.68733 12.68C1.67197 12.0723 1.66503 11.4645 1.6665 10.8567V9.14335C1.66417 8.53552 1.67028 7.92768 1.68483 7.32002L1.69066 7.15835C1.69733 6.97085 1.70566 6.78669 1.71566 6.56502C1.75733 5.67752 1.89733 5.07335 2.10316 4.54169C2.31242 3.98494 2.64126 3.48087 3.0665 3.06502C3.48241 2.64125 3.98578 2.31334 4.5415 2.10419C5.07316 1.89835 5.67733 1.75835 6.56483 1.71669C6.7865 1.70669 6.9715 1.69835 7.15816 1.69169L7.31983 1.68669C7.92749 1.67188 8.53533 1.66549 9.14316 1.66752L10.8565 1.66669ZM9.99983 5.83335C8.89476 5.83335 7.83495 6.27234 7.05355 7.05374C6.27215 7.83514 5.83316 8.89495 5.83316 10C5.83316 11.1051 6.27215 12.1649 7.05355 12.9463C7.83495 13.7277 8.89476 14.1667 9.99983 14.1667C11.1049 14.1667 12.1647 13.7277 12.9461 12.9463C13.7275 12.1649 14.1665 11.1051 14.1665 10C14.1665 8.89495 13.7275 7.83514 12.9461 7.05374C12.1647 6.27234 11.1049 5.83335 9.99983 5.83335ZM9.99983 7.50002C10.3281 7.49997 10.6532 7.56458 10.9566 7.69016C11.2599 7.81575 11.5355 7.99985 11.7677 8.23196C11.9999 8.46407 12.1841 8.73963 12.3098 9.04293C12.4355 9.34622 12.5002 9.6713 12.5002 9.9996C12.5003 10.3279 12.4357 10.653 12.3101 10.9563C12.1845 11.2596 12.0004 11.5353 11.7683 11.7675C11.5362 11.9996 11.2606 12.1838 10.9573 12.3095C10.654 12.4352 10.329 12.4999 10.0007 12.5C9.33762 12.5 8.70174 12.2366 8.2329 11.7678C7.76405 11.2989 7.50066 10.663 7.50066 10C7.50066 9.33698 7.76405 8.70109 8.2329 8.23225C8.70174 7.76341 9.33675 7.50002 9.99983 7.50002ZM14.3757 4.58335C14.0994 4.58335 13.8344 4.6931 13.6391 4.88845C13.4437 5.0838 13.334 5.34875 13.334 5.62502C13.334 5.90129 13.4437 6.16624 13.6391 6.36159C13.8344 6.55694 14.0994 6.66669 14.3757 6.66669C14.6519 6.66669 14.9169 6.55694 15.1122 6.36159C15.3076 6.16624 15.4173 5.90129 15.4173 5.62502C15.4173 5.34875 15.3076 5.0838 15.1122 4.88845C14.9169 4.6931 14.6519 4.58335 14.3757 4.58335Z" fill="white"/>
</svg>
