<svg width="320" height="80" viewBox="0 0 320 80" fill="none" xmlns="http://www.w3.org/2000/svg">
<g clip-path="url(#clip0_10_19)">
<path d="M6.19096 30.2145C6.13665 29.7645 5.9164 29.415 5.53023 29.1662C5.14404 28.9175 4.67037 28.7932 4.10921 28.7932C3.69888 28.7932 3.33986 28.8583 3.03212 28.9887C2.7274 29.1189 2.48906 29.2981 2.31708 29.526C2.14813 29.7541 2.06365 30.0131 2.06365 30.3033C2.06365 30.5462 2.12249 30.755 2.24015 30.9297C2.36083 31.1014 2.5147 31.245 2.70176 31.3605C2.88881 31.473 3.08492 31.5663 3.29008 31.6403C3.49524 31.7114 3.6838 31.7691 3.85577 31.8135L4.79708 32.0623C5.03844 32.1245 5.30696 32.2104 5.60263 32.3199C5.90132 32.4294 6.18643 32.579 6.45796 32.7685C6.73251 32.9551 6.95878 33.195 7.1368 33.4881C7.3148 33.7812 7.4038 34.141 7.4038 34.5674C7.4038 35.059 7.27256 35.5031 7.01008 35.9C6.75061 36.2968 6.37047 36.6122 5.86964 36.846C5.37183 37.08 4.76692 37.1969 4.0549 37.1969C3.39115 37.1969 2.81641 37.0919 2.33066 36.8816C1.84793 36.6713 1.46779 36.3782 1.19022 36.0021C0.915672 35.6261 0.760295 35.1892 0.724091 34.6918H1.88263C1.9128 35.0353 2.03046 35.3196 2.23563 35.5446C2.4438 35.7667 2.70628 35.9326 3.02307 36.0421C3.34288 36.1487 3.68682 36.202 4.0549 36.202C4.48331 36.202 4.86799 36.1339 5.20891 35.9976C5.54984 35.8585 5.81986 35.666 6.01898 35.4203C6.21811 35.1715 6.31767 34.8813 6.31767 34.5496C6.31767 34.2476 6.23168 34.0019 6.05972 33.8124C5.88774 33.6228 5.66147 33.4688 5.38088 33.3504C5.1003 33.2319 4.79708 33.1283 4.47125 33.0395L3.33081 32.7197C2.60671 32.5154 2.03348 32.2237 1.6111 31.8447C1.18871 31.4656 0.977522 30.9696 0.977522 30.3567C0.977522 29.8473 1.11781 29.4032 1.39839 29.0241C1.682 28.6422 2.06214 28.3461 2.53884 28.1358C3.01855 27.9226 3.55407 27.816 4.1454 27.816C4.74278 27.816 5.27377 27.9211 5.7384 28.1314C6.20302 28.3387 6.5711 28.6229 6.84263 28.9842C7.11719 29.3454 7.262 29.7556 7.27708 30.2145H6.19096ZM9.24909 37.037V27.9404H14.8427V28.9175H10.3714V31.9912H14.5531V32.9684H10.3714V36.0599H14.9151V37.037H9.24909ZM24.3237 30.7831H23.2013C23.135 30.4662 23.0189 30.1879 22.8529 29.9481C22.69 29.7082 22.4909 29.5068 22.2555 29.3439C22.0232 29.1781 21.7652 29.0537 21.4817 28.9709C21.1981 28.8879 20.9023 28.8464 20.5946 28.8464C20.0335 28.8464 19.5251 28.9857 19.0695 29.264C18.617 29.5423 18.2564 29.9525 17.9879 30.4943C17.7225 31.0363 17.5896 31.701 17.5896 32.4887C17.5896 33.2764 17.7225 33.9411 17.9879 34.4831C18.2564 35.0249 18.617 35.4351 19.0695 35.7134C19.5251 35.9917 20.0335 36.131 20.5946 36.131C20.9023 36.131 21.1981 36.0895 21.4817 36.0065C21.7652 35.9237 22.0232 35.8008 22.2555 35.6379C22.4909 35.4721 22.69 35.2692 22.8529 35.0293C23.0189 34.7866 23.135 34.5083 23.2013 34.1944H24.3237C24.2392 34.6593 24.0853 35.0753 23.862 35.4425C23.6388 35.8097 23.3613 36.1221 23.0294 36.3797C22.6976 36.6343 22.3249 36.8283 21.9115 36.9615C21.5013 37.0948 21.0622 37.1614 20.5946 37.1614C19.8042 37.1614 19.1012 36.9719 18.4857 36.5929C17.8703 36.2138 17.3861 35.6749 17.0331 34.9761C16.6801 34.2772 16.5035 33.4481 16.5035 32.4887C16.5035 31.5293 16.6801 30.7002 17.0331 30.0013C17.3861 29.3025 17.8703 28.7636 18.4857 28.3845C19.1012 28.0055 19.8042 27.816 20.5946 27.816C21.0622 27.816 21.5013 27.8826 21.9115 28.0159C22.3249 28.1491 22.6976 28.3446 23.0294 28.6022C23.3613 28.8568 23.6388 29.1677 23.862 29.5349C24.0853 29.8992 24.2392 30.3152 24.3237 30.7831ZM26.1373 37.037V27.9404H29.269C29.9931 27.9404 30.5875 28.0617 31.0521 28.3046C31.5167 28.5444 31.8606 28.8746 32.0839 29.2951C32.3071 29.7156 32.4188 30.1938 32.4188 30.7298C32.4188 31.2658 32.3071 31.741 32.0839 32.1556C31.8606 32.5702 31.5182 32.8959 31.0566 33.1328C30.595 33.3667 30.0051 33.4837 29.287 33.4837H26.7528V32.4887H29.2509C29.7457 32.4887 30.1439 32.4176 30.4456 32.2755C30.7504 32.1333 30.9706 31.932 31.1063 31.6714C31.2452 31.4079 31.3145 31.094 31.3145 30.7298C31.3145 30.3655 31.2452 30.0472 31.1063 29.7748C30.9675 29.5023 30.7459 29.2922 30.4411 29.1441C30.1364 28.9931 29.7336 28.9175 29.2328 28.9175H27.2597V37.037H26.1373ZM30.4999 32.9506L32.7808 37.037H31.4774L29.2328 32.9506H30.4999ZM34.2889 37.037V27.9404H39.8826V28.9175H35.4113V31.9912H39.5929V32.9684H35.4113V36.0599H39.9549V37.037H34.2889ZM41.3985 28.9175V27.9404H48.3498V28.9175H45.4354V37.037H44.3131V28.9175H41.3985ZM49.3794 37.037H48.2028L51.6059 27.9404H52.7645L56.1677 37.037H54.9911L52.2215 29.3795H52.149L49.3794 37.037ZM49.8138 33.4837H54.5566V34.4609H49.8138V33.4837ZM57.6114 37.037V27.9404H60.743C61.4672 27.9404 62.0615 28.0617 62.5261 28.3046C62.9907 28.5444 63.3346 28.8746 63.5579 29.2951C63.7812 29.7156 63.8928 30.1938 63.8928 30.7298C63.8928 31.2658 63.7812 31.741 63.5579 32.1556C63.3346 32.5702 62.9922 32.8959 62.5306 33.1328C62.069 33.3667 61.4792 33.4837 60.7612 33.4837H58.2268V32.4887H60.7249C61.2197 32.4887 61.618 32.4176 61.9197 32.2755C62.2244 32.1333 62.4447 31.932 62.5804 31.6714C62.7192 31.4079 62.7886 31.094 62.7886 30.7298C62.7886 30.3655 62.7192 30.0472 62.5804 29.7748C62.4417 29.5023 62.2199 29.2922 61.9152 29.1441C61.6105 28.9931 61.2076 28.9175 60.7068 28.9175H58.7337V37.037H57.6114ZM61.974 32.9506L64.2549 37.037H62.9515L60.7068 32.9506H61.974ZM66.8853 27.9404V37.037H65.763V27.9404H66.8853ZM69.5159 37.037H68.3392L71.7424 27.9404H72.9009L76.3042 37.037H75.1275L72.3578 29.3795H72.2855L69.5159 37.037ZM69.9503 33.4837H74.693V34.4609H69.9503V33.4837ZM3.98248 51.8519H1.12234V42.7552H4.10921C5.00827 42.7552 5.77762 42.9373 6.41723 43.3015C7.05684 43.6627 7.54711 44.1824 7.88803 44.8606C8.22896 45.5357 8.39942 46.3441 8.39942 47.2857C8.39942 48.2333 8.22745 49.0491 7.8835 49.7331C7.53956 50.4142 7.03874 50.9384 6.38102 51.3055C5.72331 51.6697 4.9238 51.8519 3.98248 51.8519ZM2.24467 50.8747H3.91008C4.6764 50.8747 5.31149 50.7296 5.81533 50.4394C6.31918 50.1491 6.6948 49.7361 6.94219 49.2001C7.18959 48.6642 7.31329 48.0261 7.31329 47.2857C7.31329 46.5514 7.1911 45.9192 6.94672 45.3891C6.70234 44.8561 6.33728 44.4475 5.85153 44.1632C5.3658 43.876 4.76088 43.7324 4.03679 43.7324H2.24467V50.8747ZM10.2266 51.8519H9.04996L12.4531 42.7552H13.6117L17.0149 51.8519H15.8383L13.0687 44.1943H12.9962L10.2266 51.8519ZM10.661 48.2985H15.4039V49.2757H10.661V48.2985ZM21.726 51.8519V42.7552H27.9713V44.3408H23.6856V46.5085H27.65V48.0941H23.6856V50.2662H27.9894V51.8519H21.726ZM32.8148 51.8519H29.5292V42.7552H32.8419C33.7742 42.7552 34.5767 42.9373 35.2495 43.3015C35.9223 43.6627 36.4398 44.1824 36.8018 44.8606C37.1668 45.5387 37.3493 46.35 37.3493 47.2946C37.3493 48.2422 37.1668 49.0565 36.8018 49.7376C36.4398 50.4187 35.9193 50.9413 35.2405 51.3055C34.5646 51.6697 33.7561 51.8519 32.8148 51.8519ZM31.4888 50.204H32.7333C33.3126 50.204 33.7999 50.1033 34.195 49.9019C34.5933 49.6976 34.892 49.3822 35.0911 48.9559C35.2933 48.5264 35.3943 47.9727 35.3943 47.2946C35.3943 46.6224 35.2933 46.0732 35.0911 45.6467C34.892 45.2204 34.5948 44.9065 34.1996 44.7051C33.8044 44.5037 33.3171 44.4031 32.7378 44.4031H31.4888V50.204ZM44.5258 42.7552H46.4853V48.6627C46.4853 49.326 46.3239 49.9064 46.0011 50.4039C45.6813 50.9013 45.2332 51.2892 44.657 51.5676C44.0807 51.843 43.4094 51.9807 42.6431 51.9807C41.8738 51.9807 41.201 51.843 40.6247 51.5676C40.0485 51.2892 39.6004 50.9013 39.2806 50.4039C38.9608 49.9064 38.8009 49.326 38.8009 48.6627V42.7552H40.7605V48.4984C40.7605 48.8448 40.8374 49.1528 40.9913 49.4222C41.1482 49.6917 41.3685 49.9034 41.652 50.0574C41.9356 50.2114 42.266 50.2884 42.6431 50.2884C43.0233 50.2884 43.3537 50.2114 43.6342 50.0574C43.9178 49.9034 44.1366 49.6917 44.2904 49.4222C44.4473 49.1528 44.5258 48.8448 44.5258 48.4984V42.7552ZM56.2752 45.9399H54.293C54.2568 45.6882 54.1828 45.4646 54.0712 45.2692C53.9596 45.0708 53.8163 44.902 53.6414 44.7629C53.4664 44.6237 53.2642 44.517 53.0349 44.4431C52.8087 44.369 52.5627 44.332 52.2973 44.332C51.8176 44.332 51.3997 44.449 51.0436 44.6829C50.6877 44.9139 50.4116 45.2515 50.2154 45.6956C50.0194 46.1368 49.9213 46.6728 49.9213 47.3035C49.9213 47.952 50.0194 48.4969 50.2154 48.9381C50.4146 49.3793 50.6922 49.7124 51.0481 49.9375C51.4042 50.1625 51.8161 50.2751 52.2837 50.2751C52.5461 50.2751 52.789 50.241 53.0123 50.1728C53.2385 50.1048 53.4392 50.0055 53.6142 49.8753C53.7892 49.742 53.934 49.5807 54.0486 49.3911C54.1663 49.2016 54.2477 48.9855 54.293 48.7426L56.2752 48.7515C56.2239 49.1691 56.0957 49.5718 55.8905 49.9597C55.6884 50.3446 55.4153 50.6896 55.0714 50.9946C54.7305 51.2966 54.3232 51.5365 53.8496 51.7142C53.3788 51.8889 52.8464 51.9762 52.252 51.9762C51.4253 51.9762 50.6862 51.7926 50.0345 51.4255C49.3858 51.0583 48.873 50.5267 48.4958 49.8308C48.1217 49.135 47.9346 48.2926 47.9346 47.3035C47.9346 46.3115 48.1247 45.4676 48.5049 44.7718C48.885 44.0759 49.4009 43.5458 50.0525 43.1815C50.7043 42.8144 51.4374 42.6308 52.252 42.6308C52.789 42.6308 53.2868 42.7048 53.7454 42.8528C54.207 43.001 54.6158 43.2171 54.9719 43.5013C55.3279 43.7827 55.6175 44.1277 55.8407 44.5363C56.067 44.945 56.2118 45.4128 56.2752 45.9399ZM59.1037 51.8519H57.0038L60.2034 42.7552H62.7287L65.9237 51.8519H63.8238L61.5022 44.8339H61.4298L59.1037 51.8519ZM58.9725 48.2763H63.9325V49.7776H58.9725V48.2763ZM74.7813 45.9399H72.7991C72.7629 45.6882 72.689 45.4646 72.5774 45.2692C72.4657 45.0708 72.3224 44.902 72.1474 44.7629C71.9724 44.6237 71.7703 44.517 71.541 44.4431C71.3147 44.369 71.0689 44.332 70.8033 44.332C70.3236 44.332 69.9058 44.449 69.5498 44.6829C69.1938 44.9139 68.9177 45.2515 68.7216 45.6956C68.5255 46.1368 68.4275 46.6728 68.4275 47.3035C68.4275 47.952 68.5255 48.4969 68.7216 48.9381C68.9208 49.3793 69.1983 49.7124 69.5543 49.9375C69.9103 50.1625 70.3221 50.2751 70.7897 50.2751C71.0523 50.2751 71.2951 50.241 71.5184 50.1728C71.7447 50.1048 71.9453 50.0055 72.1203 49.8753C72.2952 49.742 72.4401 49.5807 72.5548 49.3911C72.6724 49.2016 72.7538 48.9855 72.7991 48.7426L74.7813 48.7515C74.73 49.1691 74.6018 49.5718 74.3967 49.9597C74.1945 50.3446 73.9214 50.6896 73.5775 50.9946C73.2366 51.2966 72.8293 51.5365 72.3556 51.7142C71.885 51.8889 71.3525 51.9762 70.7581 51.9762C69.9314 51.9762 69.1923 51.7926 68.5406 51.4255C67.8919 51.0583 67.379 50.5267 67.0019 49.8308C66.6277 49.135 66.4408 48.2926 66.4408 47.3035C66.4408 46.3115 66.6307 45.4676 67.0109 44.7718C67.3911 44.0759 67.907 43.5458 68.5587 43.1815C69.2104 42.8144 69.9435 42.6308 70.7581 42.6308C71.2951 42.6308 71.7929 42.7048 72.2515 42.8528C72.7132 43.001 73.1219 43.2171 73.4779 43.5013C73.834 43.7827 74.1236 44.1277 74.3469 44.5363C74.5731 44.945 74.718 45.4128 74.7813 45.9399ZM70.2738 51.8252H71.1609L71.0885 52.2117C71.3993 52.259 71.6526 52.373 71.8488 52.5537C72.0479 52.7343 72.1489 52.9801 72.1519 53.291C72.155 53.7322 71.9468 54.0831 71.5275 54.3437C71.108 54.6072 70.5198 54.739 69.7625 54.739L69.7444 53.895C70.1245 53.895 70.4217 53.8492 70.6359 53.7573C70.8531 53.6686 70.9662 53.5294 70.9753 53.3399C70.9813 53.1592 70.9105 53.0215 70.7626 52.9267C70.6147 52.832 70.384 52.7653 70.0702 52.7269L70.2738 51.8252ZM77.6098 51.8519H75.5099L78.7094 42.7552H81.2347L84.4298 51.8519H82.33L80.0084 44.8339H79.9359L77.6098 51.8519ZM77.4785 48.2763H82.4385V49.7776H77.4785V48.2763ZM78.6733 41.858L77.6052 41.8447C77.6052 41.279 77.747 40.8452 78.0307 40.5432C78.3143 40.2412 78.6627 40.0886 79.076 40.0856C79.2872 40.0856 79.4683 40.1197 79.6191 40.1879C79.77 40.2529 79.9072 40.33 80.0309 40.4188C80.1547 40.5077 80.2723 40.5861 80.3839 40.6542C80.4956 40.7194 80.6163 40.7519 80.746 40.7519C80.921 40.7489 81.0537 40.6853 81.1443 40.561C81.2377 40.4336 81.2845 40.2678 81.2845 40.0635L82.339 40.0945C82.333 40.6542 82.1881 41.0865 81.9045 41.3915C81.6209 41.6936 81.274 41.8461 80.8636 41.8491C80.6404 41.8521 80.4518 41.8195 80.298 41.7513C80.1471 41.6833 80.0144 41.6062 79.8997 41.5204C79.7851 41.4315 79.6735 41.3531 79.5648 41.2849C79.4562 41.2168 79.334 41.1828 79.1983 41.1828C79.0413 41.1828 78.9146 41.2435 78.8181 41.3649C78.7215 41.4863 78.6733 41.6507 78.6733 41.858ZM93.6269 47.3035C93.6269 48.2955 93.4353 49.1395 93.0521 49.8353C92.6719 50.5312 92.153 51.0627 91.4952 51.4299C90.8406 51.7941 90.1045 51.9762 89.2868 51.9762C88.4632 51.9762 87.724 51.7926 87.0693 51.4255C86.4146 51.0583 85.8972 50.5267 85.5171 49.8308C85.1369 49.135 84.9468 48.2926 84.9468 47.3035C84.9468 46.3115 85.1369 45.4676 85.5171 44.7718C85.8972 44.0759 86.4146 43.5458 87.0693 43.1815C87.724 42.8144 88.4632 42.6308 89.2868 42.6308C90.1045 42.6308 90.8406 42.8144 91.4952 43.1815C92.153 43.5458 92.6719 44.0759 93.0521 44.7718C93.4353 45.4676 93.6269 46.3115 93.6269 47.3035ZM91.6402 47.3035C91.6402 46.6609 91.542 46.119 91.3459 45.6778C91.1529 45.2367 90.8798 44.902 90.5268 44.674C90.1738 44.446 89.7605 44.332 89.2868 44.332C88.8132 44.332 88.3998 44.446 88.0468 44.674C87.6938 44.902 87.4193 45.2367 87.2231 45.6778C87.03 46.119 86.9335 46.6609 86.9335 47.3035C86.9335 47.9461 87.03 48.488 87.2231 48.9292C87.4193 49.3704 87.6938 49.705 88.0468 49.933C88.3998 50.161 88.8132 50.2751 89.2868 50.2751C89.7605 50.2751 90.1738 50.161 90.5268 49.933C90.8798 49.705 91.1529 49.3704 91.3459 48.9292C91.542 48.488 91.6402 47.9461 91.6402 47.3035ZM102.817 46.8149V47.7921H98.7622V46.8149H102.817ZM113.494 45.0293C113.44 44.5793 113.22 44.2298 112.833 43.981C112.447 43.7324 111.974 43.608 111.412 43.608C111.002 43.608 110.643 43.6731 110.336 43.8035C110.031 43.9337 109.792 44.1129 109.62 44.3408C109.451 44.5689 109.367 44.828 109.367 45.1181C109.367 45.361 109.426 45.5698 109.544 45.7445C109.663 45.9163 109.817 46.0599 110.005 46.1753C110.192 46.2878 110.388 46.3811 110.593 46.4551C110.798 46.5262 110.987 46.5839 111.159 46.6284L112.1 46.8771C112.341 46.9393 112.61 47.0252 112.906 47.1347C113.205 47.2443 113.489 47.3938 113.761 47.5833C114.036 47.7699 114.262 48.0098 114.44 48.3029C114.617 48.5961 114.707 48.9559 114.707 49.3822C114.707 49.8738 114.575 50.3179 114.313 50.7148C114.054 51.1116 113.673 51.427 113.172 51.6608C112.675 51.8948 112.07 52.0118 111.358 52.0118C110.694 52.0118 110.119 51.9067 109.633 51.6964C109.151 51.4861 108.771 51.193 108.493 50.8169C108.218 50.4409 108.063 50.0041 108.027 49.5066H109.185C109.216 49.8501 109.333 50.1344 109.539 50.3594C109.747 50.5815 110.01 50.7474 110.327 50.8569C110.646 50.9635 110.99 51.0168 111.358 51.0168C111.787 51.0168 112.171 50.9488 112.512 50.8125C112.853 50.6733 113.123 50.4808 113.322 50.2351C113.522 49.9863 113.621 49.6961 113.621 49.3645C113.621 49.0624 113.535 48.8167 113.363 48.6272C113.19 48.4376 112.964 48.2837 112.684 48.1652C112.404 48.0467 112.1 47.9431 111.775 47.8543L110.633 47.5345C109.91 47.3302 109.336 47.0385 108.914 46.6595C108.492 46.2804 108.281 45.7844 108.281 45.1715C108.281 44.6621 108.421 44.218 108.701 43.8389C108.985 43.457 109.366 43.1609 109.842 42.9506C110.322 42.7374 110.857 42.6308 111.449 42.6308C112.046 42.6308 112.577 42.7359 113.042 42.9462C113.506 43.1535 113.874 43.4377 114.145 43.799C114.42 44.1602 114.565 44.5704 114.58 45.0293H113.494ZM116.552 51.8519V42.7552H122.145V43.7324H117.674V46.806H121.856V47.7832H117.674V50.8747H122.218V51.8519H116.552ZM127.029 51.8519H124.169V42.7552H127.156C128.054 42.7552 128.824 42.9373 129.463 43.3015C130.103 43.6627 130.593 44.1824 130.934 44.8606C131.275 45.5357 131.446 46.3441 131.446 47.2857C131.446 48.2333 131.273 49.0491 130.929 49.7331C130.586 50.4142 130.085 50.9384 129.427 51.3055C128.77 51.6697 127.97 51.8519 127.029 51.8519ZM125.291 50.8747H126.956C127.722 50.8747 128.358 50.7296 128.861 50.4394C129.366 50.1491 129.741 49.7361 129.988 49.2001C130.236 48.6642 130.36 48.0261 130.36 47.2857C130.36 46.5514 130.237 45.9192 129.993 45.3891C129.749 44.8561 129.384 44.4475 128.898 44.1632C128.413 43.876 127.807 43.7324 127.083 43.7324H125.291V50.8747ZM139.41 42.7552H140.533V48.7782C140.533 49.4 140.383 49.9553 140.085 50.4439C139.79 50.9295 139.371 51.3129 138.832 51.5943C138.291 51.8726 137.657 52.0118 136.931 52.0118C136.203 52.0118 135.57 51.8726 135.03 51.5943C134.49 51.3129 134.071 50.9295 133.772 50.4439C133.476 49.9553 133.328 49.4 133.328 48.7782V42.7552H134.45V48.6893C134.45 49.1335 134.55 49.5288 134.749 49.8753C134.948 50.2188 135.232 50.4897 135.601 50.6881C135.971 50.8836 136.415 50.9812 136.931 50.9812C137.447 50.9812 137.89 50.8836 138.261 50.6881C138.632 50.4897 138.916 50.2188 139.112 49.8753C139.311 49.5288 139.41 49.1335 139.41 48.6893V42.7552ZM150.232 45.5979H149.11C149.044 45.281 148.928 45.0027 148.762 44.7629C148.599 44.523 148.4 44.3216 148.164 44.1587C147.932 43.9929 147.674 43.8686 147.39 43.7857C147.106 43.7027 146.811 43.6612 146.504 43.6612C145.942 43.6612 145.434 43.8005 144.978 44.0788C144.525 44.3571 144.165 44.7673 143.896 45.3091C143.631 45.8511 143.499 46.5159 143.499 47.3035C143.499 48.0912 143.631 48.756 143.896 49.2979C144.165 49.8397 144.525 50.2499 144.978 50.5282C145.434 50.8065 145.942 50.9458 146.504 50.9458C146.811 50.9458 147.106 50.9043 147.39 50.8213C147.674 50.7385 147.932 50.6156 148.164 50.4528C148.4 50.2869 148.599 50.0841 148.762 49.8442C148.928 49.6014 149.044 49.3231 149.11 49.0092H150.232C150.147 49.4741 149.994 49.8901 149.771 50.2573C149.548 50.6245 149.27 50.9369 148.938 51.1945C148.606 51.4491 148.233 51.6431 147.82 51.7763C147.41 51.9096 146.971 51.9762 146.504 51.9762C145.713 51.9762 145.01 51.7867 144.394 51.4077C143.779 51.0287 143.295 50.4897 142.941 49.7909C142.589 49.0921 142.412 48.2629 142.412 47.3035C142.412 46.3441 142.589 45.515 142.941 44.8161C143.295 44.1173 143.779 43.5784 144.394 43.1993C145.01 42.8204 145.713 42.6308 146.504 42.6308C146.971 42.6308 147.41 42.6974 147.82 42.8307C148.233 42.964 148.606 43.1594 148.938 43.417C149.27 43.6716 149.548 43.9825 149.771 44.3497C149.994 44.714 150.147 45.13 150.232 45.5979Z" fill="white"/>
<path d="M167.056 24.6388V55.361" stroke="white" stroke-width="0.362906"/>
<path fill-rule="evenodd" clip-rule="evenodd" d="M213.589 19.2567C219.894 16.2119 226.167 13.9001 232.354 13.4396C232.403 12.3769 232.45 11.3229 232.498 10.2777C226.302 10.9169 220.041 12.9769 213.745 15.8199C213.694 16.963 213.641 18.1087 213.589 19.2567Z" fill="white"/>
<path fill-rule="evenodd" clip-rule="evenodd" d="M232.423 15.8297C226.636 16.1552 220.769 18.2337 214.869 21.0513C214.818 22.1887 214.765 23.3299 214.713 24.4749C220.62 21.5163 226.495 19.2644 232.276 19.0718C232.325 17.9825 232.374 16.9016 232.423 15.8297Z" fill="white"/>
<path fill-rule="evenodd" clip-rule="evenodd" d="M211.804 31.8063C219.14 27.8022 226.45 24.3472 233.582 24.8274C233.633 23.7044 233.685 22.5883 233.735 21.4792C226.595 21.1648 219.295 24.4014 211.964 28.3087C211.91 29.4734 211.857 30.6392 211.804 31.8063Z" fill="white"/>
<path fill-rule="evenodd" clip-rule="evenodd" d="M234.233 33.2701C234.181 34.4228 234.128 35.5809 234.075 36.745C218.486 34.5039 201.888 54.4095 186.298 52.1799L186.97 48.8165C202.408 50.5777 218.822 30.9081 234.233 33.2701Z" fill="white"/>
<path fill-rule="evenodd" clip-rule="evenodd" d="M237.18 40.0133C237.127 41.1845 237.074 42.3558 237.02 43.527C228.218 40.2017 219.014 45.7053 209.842 50.5186C200.71 55.4588 191.612 59.7138 182.804 57.5575L183.471 54.2147C200.925 59.3441 219.768 33.9772 237.18 40.0133Z" fill="white"/>
<path fill-rule="evenodd" clip-rule="evenodd" d="M235.502 45.7295C235.449 46.9069 235.395 48.0869 235.341 49.2698C226.892 47.1704 218.107 52.4414 209.368 56.7323C200.65 61.2065 191.977 64.7062 183.507 63.7284L184.177 60.3701C192.463 61.6017 200.978 57.7749 209.527 53.2251C218.277 48.7153 227.061 43.4496 235.502 45.7295Z" fill="white"/>
<path fill-rule="evenodd" clip-rule="evenodd" d="M204.158 72.9815C204.109 74.0788 204.058 75.1715 204.009 76.2594C198.995 77.7884 194.004 78.7839 189.011 79.8238L189.62 76.7721C194.449 75.887 199.292 74.6978 204.158 72.9815Z" fill="white"/>
<path fill-rule="evenodd" clip-rule="evenodd" d="M233.245 54.9892C225.162 54.2843 216.822 59.2324 208.539 62.9023C200.064 66.9158 191.65 69.5935 183.359 69.5489L184.033 66.1698C192.131 66.6538 200.389 63.582 208.698 59.4143C216.993 55.4602 225.338 50.4146 233.41 51.3657L233.245 54.9892Z" fill="white"/>
<path fill-rule="evenodd" clip-rule="evenodd" d="M221.985 63.3348C216.783 65.1472 211.545 67.7253 206.335 69.7092C199.735 72.3448 193.18 74.0273 186.66 74.9487L187.298 71.7533C193.642 71.0924 200.046 69.1322 206.49 66.3057C211.71 64.0996 216.957 61.3268 222.161 59.4801L221.985 63.3348Z" fill="white"/>
<path fill-rule="evenodd" clip-rule="evenodd" d="M230.214 5.20062C230.169 6.1968 230.122 7.20323 230.076 8.22004C225.356 8.98838 220.605 10.4682 215.831 12.4047L215.983 9.07133C220.747 7.33272 225.49 6.03671 230.214 5.20062Z" fill="white"/>
<path fill-rule="evenodd" clip-rule="evenodd" d="M222.336 1.80804C224.592 1.23599 226.848 0.711091 229.104 0.176025C229.096 1.14854 229.088 2.13078 229.079 3.12316C226.786 3.60983 224.493 4.16361 222.2 4.80787L222.336 1.80804Z" fill="white"/>
<path fill-rule="evenodd" clip-rule="evenodd" d="M232.523 30.5382C223.382 30.0889 213.92 36.6934 204.539 41.5148L204.7 37.9806C214.081 33.1497 223.534 26.7568 232.678 27.1411C232.627 28.2655 232.576 29.3978 232.523 30.5382Z" fill="white"/>
<path fill-rule="evenodd" clip-rule="evenodd" d="M247.314 54.0262H244.867L244.361 55.1557H243.683L245.768 50.637H246.419L248.511 55.1557H247.82L247.314 54.0262ZM247.083 53.5097L246.09 51.2956L245.097 53.5097H247.083Z" fill="white"/>
<path fill-rule="evenodd" clip-rule="evenodd" d="M253.711 55.5688C253.562 55.7411 253.389 55.8723 253.19 55.9627C252.993 56.0527 252.781 56.0984 252.552 56.0984C252.264 56.0984 251.993 56.0306 251.74 55.895C251.489 55.7595 251.201 55.5281 250.876 55.2008C250.442 55.1793 250.051 55.0653 249.702 54.8589C249.353 54.6522 249.082 54.3781 248.887 54.0359C248.691 53.694 248.594 53.314 248.594 52.8966C248.594 52.4619 248.7 52.068 248.913 51.7152C249.125 51.3622 249.418 51.0858 249.791 50.8857C250.164 50.6856 250.582 50.5855 251.047 50.5855C251.507 50.5855 251.924 50.6856 252.297 50.8857C252.669 51.0858 252.961 51.3613 253.171 51.7118C253.382 52.0629 253.487 52.4577 253.487 52.8966C253.487 53.2667 253.411 53.6067 253.26 53.9163C253.109 54.2263 252.896 54.4869 252.622 54.6973C252.348 54.9086 252.033 55.0548 251.678 55.1362C251.832 55.2955 251.98 55.4106 252.122 55.4817C252.265 55.5527 252.411 55.5883 252.559 55.5883C252.884 55.5883 253.165 55.4593 253.402 55.2008L253.711 55.5688ZM249.485 53.7841C249.64 54.0489 249.856 54.2566 250.129 54.4071C250.404 54.5578 250.709 54.6327 251.047 54.6327C251.38 54.6327 251.683 54.5578 251.955 54.4071C252.226 54.2566 252.441 54.0489 252.596 53.7841C252.752 53.5195 252.829 53.2235 252.829 52.8966C252.829 52.5697 252.752 52.2734 252.596 52.0089C252.441 51.7443 252.226 51.5368 251.955 51.3861C251.683 51.2354 251.38 51.1601 251.047 51.1601C250.709 51.1601 250.404 51.2354 250.129 51.3861C249.856 51.5368 249.64 51.7443 249.485 52.0089C249.329 52.2734 249.252 52.5697 249.252 52.8966C249.252 53.2235 249.329 53.5195 249.485 53.7841Z" fill="white"/>
<path fill-rule="evenodd" clip-rule="evenodd" d="M254.858 54.691C254.516 54.3465 254.345 53.8516 254.345 53.206V50.637H255.002V53.1805C255.002 54.1486 255.434 54.6327 256.298 54.6327C256.718 54.6327 257.042 54.5134 257.265 54.2745C257.488 54.0357 257.6 53.671 257.6 53.1805V50.637H258.238V53.206C258.238 53.8559 258.067 54.352 257.725 54.694C257.383 55.0363 256.906 55.2071 256.291 55.2071C255.677 55.2071 255.199 55.0352 254.858 54.691Z" fill="white"/>
<path fill-rule="evenodd" clip-rule="evenodd" d="M259.478 50.637H260.136V55.1557H259.478V50.637Z" fill="white"/>
<path fill-rule="evenodd" clip-rule="evenodd" d="M264.201 51.1989H262.622V50.637H266.431V51.1989H264.852V55.1557H264.201V51.1989Z" fill="white"/>
<path fill-rule="evenodd" clip-rule="evenodd" d="M270.429 54.5942V55.1557H267.088V50.637H270.338V51.1989H267.746V52.5866H270.055V53.1351H267.746V54.5942H270.429Z" fill="white"/>
<path fill-rule="evenodd" clip-rule="evenodd" d="M275.585 55.1557L275.579 51.8635L273.915 54.6072H273.612L271.949 51.883V55.1557H271.317V50.637H271.856L273.777 53.8131L275.671 50.637H276.21L276.217 55.1557H275.585Z" fill="white"/>
<path fill-rule="evenodd" clip-rule="evenodd" d="M280.176 51.4895H278.703V50.637H282.714V51.4895H281.242V55.1557H280.176V51.4895Z" fill="white"/>
<path fill-rule="evenodd" clip-rule="evenodd" d="M286.176 55.1557L285.287 53.8971H285.235H284.308V55.1557H283.242V50.637H285.235C285.642 50.637 285.996 50.704 286.297 50.8375C286.597 50.9708 286.829 51.1601 286.992 51.4055C287.153 51.6507 287.234 51.941 287.234 52.2765C287.234 52.6124 287.153 52.9018 286.988 53.1449C286.824 53.3881 286.59 53.5741 286.287 53.7032L287.32 55.1557H286.176ZM285.906 51.6927C285.739 51.5572 285.495 51.4895 285.175 51.4895H284.308V53.0642H285.175C285.495 53.0642 285.739 52.9956 285.906 52.8576C286.072 52.72 286.155 52.5263 286.155 52.2765C286.155 52.0228 286.072 51.8282 285.906 51.6927Z" fill="white"/>
<path fill-rule="evenodd" clip-rule="evenodd" d="M291.277 54.1875H289.14L288.733 55.1557H287.641L289.693 50.637H290.744L292.803 55.1557H291.685L291.277 54.1875ZM290.942 53.3936L290.212 51.6634L289.481 53.3936H290.942Z" fill="white"/>
<path fill-rule="evenodd" clip-rule="evenodd" d="M297.284 53.2158C297.433 53.4076 297.507 53.6429 297.507 53.9226C297.507 54.3187 297.35 54.6229 297.037 54.836C296.724 55.049 296.267 55.1556 295.666 55.1556H293.285V50.6368H295.534C296.096 50.6368 296.526 50.7425 296.827 50.9535C297.127 51.1643 297.277 51.4504 297.277 51.8119C297.277 52.0314 297.224 52.2272 297.116 52.3994C297.009 52.5714 296.858 52.7069 296.666 52.8059C296.929 52.8878 297.135 53.0244 297.284 53.2158ZM294.345 51.4245V52.4895H295.403C295.666 52.4895 295.866 52.4444 296.001 52.3541C296.138 52.2638 296.205 52.1305 296.205 51.9539C296.205 51.7777 296.138 51.645 296.001 51.5569C295.866 51.4687 295.666 51.4245 295.403 51.4245H294.345ZM296.222 54.2326C296.364 54.1421 296.436 54.0022 296.436 53.8129C296.436 53.4386 296.153 53.2515 295.587 53.2515H294.345V54.3681H295.587C295.868 54.3681 296.08 54.3231 296.222 54.2326Z" fill="white"/>
<path fill-rule="evenodd" clip-rule="evenodd" d="M301.3 54.1875H299.163L298.755 55.1557H297.663L299.715 50.637H300.767L302.826 55.1557H301.708L301.3 54.1875ZM300.965 53.3936L300.234 51.6634L299.505 53.3936H300.965Z" fill="white"/>
<path fill-rule="evenodd" clip-rule="evenodd" d="M303.308 50.637H304.373V54.3037H306.682V55.1557H303.308V50.637Z" fill="white"/>
<path fill-rule="evenodd" clip-rule="evenodd" d="M311.445 50.637V55.1557H310.379V53.303H308.288V55.1557H307.222V50.637H308.288V52.4186H310.379V50.637H311.445Z" fill="white"/>
<path fill-rule="evenodd" clip-rule="evenodd" d="M313.479 54.9298C313.096 54.7274 312.795 54.449 312.579 54.0939C312.361 53.739 312.253 53.3401 312.253 52.8965C312.253 52.4533 312.361 52.0543 312.579 51.6993C312.795 51.3442 313.096 51.0657 313.479 50.8629C313.863 50.6608 314.293 50.5599 314.771 50.5599C315.249 50.5599 315.679 50.6608 316.06 50.8629C316.442 51.0657 316.743 51.3442 316.962 51.6993C317.18 52.0543 317.291 52.4533 317.291 52.8965C317.291 53.3401 317.18 53.739 316.962 54.0939C316.743 54.449 316.442 54.7274 316.06 54.9298C315.679 55.1323 315.249 55.2333 314.771 55.2333C314.293 55.2333 313.863 55.1323 313.479 54.9298ZM315.508 54.1584C315.727 54.0359 315.899 53.8648 316.024 53.6452C316.149 53.4258 316.212 53.1762 316.212 52.8965C316.212 52.617 316.149 52.3671 316.024 52.1476C315.899 51.9282 315.727 51.7572 315.508 51.6343C315.289 51.5118 315.043 51.4506 314.771 51.4506C314.5 51.4506 314.254 51.5118 314.035 51.6343C313.815 51.7572 313.643 51.9282 313.518 52.1476C313.394 52.3671 313.331 52.617 313.331 52.8965C313.331 53.1762 313.394 53.4258 313.518 53.6452C313.643 53.8648 313.815 54.0359 314.035 54.1584C314.254 54.281 314.5 54.3423 314.771 54.3423C315.043 54.3423 315.289 54.281 315.508 54.1584Z" fill="white"/>
<path fill-rule="evenodd" clip-rule="evenodd" d="M317.781 55.0685C317.694 54.9845 317.649 54.8782 317.649 54.7492C317.649 54.6245 317.694 54.5199 317.781 54.4358C317.869 54.352 317.973 54.3101 318.097 54.3101C318.22 54.3101 318.322 54.3509 318.406 54.4327C318.489 54.5146 318.531 54.6201 318.531 54.7492C318.531 54.8782 318.488 54.9845 318.402 55.0685C318.317 55.1526 318.215 55.1943 318.097 55.1943C317.973 55.1943 317.869 55.1526 317.781 55.0685Z" fill="white"/>
<path fill-rule="evenodd" clip-rule="evenodd" d="M247.314 61.4982H244.867L244.361 62.6278H243.683L245.768 58.109H246.419L248.511 62.6278H247.82L247.314 61.4982ZM247.083 60.9817L246.09 58.7676L245.097 60.9817H247.083Z" fill="white"/>
<path fill-rule="evenodd" clip-rule="evenodd" d="M253.711 63.0409C253.562 63.2131 253.389 63.3443 253.19 63.4348C252.993 63.5249 252.781 63.5705 252.552 63.5705C252.264 63.5705 251.993 63.5025 251.74 63.367C251.489 63.2315 251.201 63.0001 250.876 62.6729C250.442 62.6513 250.051 62.5374 249.702 62.3307C249.353 62.1243 249.082 61.8501 248.887 61.508C248.691 61.166 248.594 60.786 248.594 60.3687C248.594 59.9339 248.7 59.5401 248.913 59.1871C249.125 58.8342 249.418 58.5578 249.791 58.3577C250.164 58.1577 250.582 58.0575 251.047 58.0575C251.507 58.0575 251.924 58.1577 252.297 58.3577C252.669 58.5578 252.961 58.8331 253.171 59.1839C253.382 59.535 253.487 59.9297 253.487 60.3687C253.487 60.7387 253.411 61.0785 253.26 61.3883C253.109 61.6983 252.896 61.9589 252.622 62.1693C252.348 62.3807 252.033 62.5268 251.678 62.6082C251.832 62.7676 251.98 62.8827 252.122 62.9536C252.265 63.0247 252.411 63.0604 252.559 63.0604C252.884 63.0604 253.165 62.9313 253.402 62.6729L253.711 63.0409ZM249.485 61.2561C249.64 61.5209 249.856 61.7285 250.129 61.8792C250.404 62.0298 250.709 62.1047 251.047 62.1047C251.38 62.1047 251.683 62.0298 251.955 61.8792C252.226 61.7285 252.441 61.5209 252.596 61.2561C252.752 60.9915 252.829 60.6955 252.829 60.3687C252.829 60.0417 252.752 59.7454 252.596 59.4809C252.441 59.2163 252.226 59.0087 251.955 58.8581C251.683 58.7074 251.38 58.6319 251.047 58.6319C250.709 58.6319 250.404 58.7074 250.129 58.8581C249.856 59.0087 249.64 59.2163 249.485 59.4809C249.329 59.7454 249.252 60.0417 249.252 60.3687C249.252 60.6955 249.329 60.9915 249.485 61.2561Z" fill="white"/>
<path fill-rule="evenodd" clip-rule="evenodd" d="M254.858 62.1632C254.516 61.8187 254.345 61.3238 254.345 60.6781V58.109H255.002V60.6525C255.002 61.6207 255.434 62.1048 256.298 62.1048C256.718 62.1048 257.042 61.9855 257.265 61.7466C257.488 61.5079 257.6 61.1432 257.6 60.6525V58.109H258.238V60.6781C258.238 61.328 258.067 61.824 257.725 62.1659C257.383 62.5084 256.906 62.6792 256.291 62.6792C255.677 62.6792 255.199 62.5073 254.858 62.1632Z" fill="white"/>
<path fill-rule="evenodd" clip-rule="evenodd" d="M259.478 58.109H260.136V62.6279H259.478V58.109Z" fill="white"/>
<path fill-rule="evenodd" clip-rule="evenodd" d="M264.201 58.671H262.622V58.109H266.431V58.671H264.852V62.6278H264.201V58.671Z" fill="white"/>
<path fill-rule="evenodd" clip-rule="evenodd" d="M270.429 62.0663V62.6278H267.088V58.109H270.338V58.671H267.746V60.0588H270.055V60.6072H267.746V62.0663H270.429Z" fill="white"/>
<path fill-rule="evenodd" clip-rule="evenodd" d="M275.585 62.6278L275.579 59.3357L273.915 62.0792H273.612L271.949 59.355V62.6278H271.317V58.109H271.856L273.777 61.2851L275.671 58.109H276.21L276.217 62.6278H275.585Z" fill="white"/>
<path fill-rule="evenodd" clip-rule="evenodd" d="M280.288 58.9485V60.1426H282.418V60.9815H280.288V62.6278H279.222V58.109H282.701V58.9485H280.288Z" fill="white"/>
<path fill-rule="evenodd" clip-rule="evenodd" d="M283.911 62.1693C283.545 61.8125 283.363 61.3024 283.363 60.6396V58.109H284.428V60.6007C284.428 61.41 284.77 61.8142 285.454 61.8142C285.787 61.8142 286.042 61.7166 286.217 61.5209C286.392 61.3247 286.481 61.0185 286.481 60.6007V58.109H287.533V60.6396C287.533 61.3024 287.35 61.8125 286.984 62.1693C286.617 62.5268 286.105 62.7053 285.448 62.7053C284.79 62.7053 284.278 62.5268 283.911 62.1693Z" fill="white"/>
<path fill-rule="evenodd" clip-rule="evenodd" d="M289.515 58.9615H288.042V58.109H292.054V58.9615H290.581V62.6278H289.515V58.9615Z" fill="white"/>
<path fill-rule="evenodd" clip-rule="evenodd" d="M293.113 62.1693C292.747 61.8125 292.563 61.3024 292.563 60.6396V58.109H293.629V60.6007C293.629 61.41 293.971 61.8142 294.656 61.8142C294.989 61.8142 295.242 61.7166 295.418 61.5209C295.593 61.3247 295.681 61.0185 295.681 60.6007V58.109H296.734V60.6396C296.734 61.3024 296.55 61.8125 296.184 62.1693C295.818 62.5268 295.307 62.7053 294.649 62.7053C293.99 62.7053 293.479 62.5268 293.113 62.1693Z" fill="white"/>
<path fill-rule="evenodd" clip-rule="evenodd" d="M300.713 62.6278L299.826 61.3691H299.774H298.846V62.6278H297.78V58.109H299.774C300.181 58.109 300.535 58.1761 300.835 58.3095C301.136 58.4427 301.367 58.6319 301.53 58.8775C301.692 59.1227 301.772 59.4129 301.772 59.7487C301.772 60.0844 301.691 60.374 301.526 60.6169C301.362 60.8602 301.128 61.0462 300.825 61.1752L301.858 62.6278H300.713ZM300.444 59.1647C300.278 59.0292 300.034 58.9615 299.714 58.9615H298.846V60.5362H299.714C300.034 60.5362 300.278 60.4677 300.444 60.3296C300.611 60.192 300.693 59.9985 300.693 59.7487C300.693 59.4948 300.611 59.3003 300.444 59.1647Z" fill="white"/>
<path fill-rule="evenodd" clip-rule="evenodd" d="M303.52 62.4018C303.136 62.1997 302.836 61.921 302.618 61.5659C302.401 61.211 302.292 60.8118 302.292 60.3686C302.292 59.9253 302.401 59.5263 302.618 59.1712C302.836 58.8164 303.136 58.5377 303.52 58.335C303.903 58.1329 304.334 58.0319 304.812 58.0319C305.29 58.0319 305.72 58.1329 306.101 58.335C306.483 58.5377 306.782 58.8164 307.002 59.1712C307.221 59.5263 307.331 59.9253 307.331 60.3686C307.331 60.8118 307.221 61.211 307.002 61.5659C306.782 61.921 306.483 62.1997 306.101 62.4018C305.72 62.6044 305.29 62.7053 304.812 62.7053C304.334 62.7053 303.903 62.6044 303.52 62.4018ZM305.549 61.6304C305.767 61.5079 305.94 61.3368 306.065 61.1172C306.19 60.8978 306.252 60.6484 306.252 60.3686C306.252 60.089 306.19 59.8392 306.065 59.6195C305.94 59.4002 305.767 59.2292 305.549 59.1064C305.329 58.9838 305.084 58.9226 304.812 58.9226C304.539 58.9226 304.295 58.9838 304.075 59.1064C303.856 59.2292 303.684 59.4002 303.559 59.6195C303.434 59.8392 303.372 60.089 303.372 60.3686C303.372 60.6484 303.434 60.8978 303.559 61.1172C303.684 61.3368 303.856 61.5079 304.075 61.6304C304.295 61.753 304.539 61.8142 304.812 61.8142C305.084 61.8142 305.329 61.753 305.549 61.6304Z" fill="white"/>
<path fill-rule="evenodd" clip-rule="evenodd" d="M307.821 62.5406C307.733 62.4565 307.69 62.3502 307.69 62.2211C307.69 62.0965 307.733 61.992 307.821 61.908C307.909 61.824 308.014 61.7821 308.137 61.7821C308.26 61.7821 308.362 61.8229 308.446 61.9048C308.529 61.9866 308.572 62.0923 308.572 62.2211C308.572 62.3502 308.528 62.4565 308.443 62.5406C308.357 62.6247 308.256 62.6663 308.137 62.6663C308.014 62.6663 307.909 62.6247 307.821 62.5406Z" fill="white"/>
<path fill-rule="evenodd" clip-rule="evenodd" d="M246.227 18.7478C246.61 18.5449 247.049 18.4432 247.543 18.4432C248.297 18.4432 248.941 18.7052 249.474 19.2293L250.295 18.4432C249.968 18.0766 249.565 17.7983 249.084 17.6085C248.604 17.4186 248.07 17.3238 247.483 17.3238C246.762 17.3238 246.114 17.4758 245.537 17.7804C244.96 18.0849 244.507 18.5057 244.18 19.0426C243.853 19.5798 243.69 20.1852 243.69 20.8601C243.69 21.5342 243.853 22.1404 244.18 22.6767C244.507 23.2139 244.958 23.6345 245.532 23.9391C246.105 24.2437 246.749 24.3961 247.463 24.3961C247.97 24.3961 248.464 24.3204 248.944 24.1701C249.425 24.0194 249.846 23.8032 250.206 23.5218V20.7813H248.974V22.9227C248.56 23.1584 248.08 23.2763 247.533 23.2763C247.046 23.2763 246.61 23.1714 246.227 22.9619C245.844 22.7521 245.543 22.4642 245.326 22.0973C245.109 21.7308 245.001 21.318 245.001 20.8601C245.001 20.3881 245.109 19.9693 245.326 19.6024C245.543 19.236 245.844 18.951 246.227 18.7478Z" fill="white"/>
<path fill-rule="evenodd" clip-rule="evenodd" d="M257.521 17.7803C256.947 17.4758 256.303 17.3235 255.589 17.3235C254.875 17.3235 254.231 17.4758 253.657 17.7803C253.084 18.0848 252.633 18.5073 252.306 19.047C251.98 19.5874 251.816 20.1916 251.816 20.8598C251.816 21.5276 251.98 22.1318 252.306 22.6719C252.633 23.2123 253.084 23.6343 253.657 23.9389C254.231 24.2435 254.875 24.396 255.589 24.396C256.303 24.396 256.947 24.2435 257.521 23.9389C258.094 23.6343 258.545 23.2137 258.872 22.6767C259.198 22.14 259.362 21.534 259.362 20.8598C259.362 20.1851 259.198 19.5795 258.872 19.0425C258.545 18.5055 258.094 18.0848 257.521 17.7803ZM257.731 22.1023C257.517 22.4722 257.224 22.7603 256.85 22.9665C256.476 23.1729 256.056 23.2759 255.589 23.2759C255.122 23.2759 254.702 23.1729 254.329 22.9665C253.954 22.7603 253.661 22.4722 253.447 22.1023C253.234 21.7324 253.127 21.3178 253.127 20.8598C253.127 20.4013 253.234 19.9871 253.447 19.617C253.661 19.2471 253.954 18.9588 254.329 18.7528C254.702 18.5466 255.122 18.4432 255.589 18.4432C256.056 18.4432 256.476 18.5466 256.85 18.7528C257.224 18.9588 257.517 19.2471 257.731 19.617C257.944 19.9871 258.051 20.4013 258.051 20.8598C258.051 21.3178 257.944 21.7324 257.731 22.1023Z" fill="white"/>
<path fill-rule="evenodd" clip-rule="evenodd" d="M263.675 22.7261L261.343 17.4216H259.933L262.995 24.2976H264.276L267.328 17.4216H266.027L263.675 22.7261Z" fill="white"/>
<path fill-rule="evenodd" clip-rule="evenodd" d="M269.771 21.3314H273.153V20.2802H269.771V18.4924H273.584V17.4216H268.47V24.2977H273.724V23.2269H269.771V21.3314Z" fill="white"/>
<path fill-rule="evenodd" clip-rule="evenodd" d="M281.055 21.2034C281.311 20.8303 281.44 20.3849 281.44 19.8678C281.44 19.3634 281.319 18.928 281.08 18.561C280.839 18.1945 280.494 17.9132 280.043 17.7166C279.593 17.5202 279.064 17.4216 278.457 17.4216H275.575V24.2977H276.876V22.2937H278.457C278.577 22.2937 278.668 22.2907 278.727 22.284L280.158 24.2977H281.56L279.949 22.0384C280.429 21.8551 280.797 21.5768 281.055 21.2034ZM278.397 21.2426H276.876V18.5022H278.397C278.965 18.5022 279.394 18.6202 279.688 18.8558C279.982 19.0916 280.129 19.4289 280.129 19.8678C280.129 20.3063 279.982 20.6454 279.688 20.8844C279.394 21.1234 278.965 21.2426 278.397 21.2426Z" fill="white"/>
<path fill-rule="evenodd" clip-rule="evenodd" d="M288.224 22.0777L284.362 17.4216H283.292V24.2976H284.582V19.6416L288.445 24.2976H289.516V17.4216H288.224V22.0777Z" fill="white"/>
<path fill-rule="evenodd" clip-rule="evenodd" d="M297.001 17.7803C296.428 17.4758 295.784 17.3235 295.07 17.3235C294.356 17.3235 293.713 17.4758 293.139 17.7803C292.565 18.0848 292.114 18.5073 291.788 19.047C291.461 19.5874 291.298 20.1916 291.298 20.8598C291.298 21.5276 291.461 22.1318 291.788 22.6719C292.114 23.2123 292.565 23.6343 293.139 23.9389C293.713 24.2435 294.356 24.396 295.07 24.396C295.784 24.396 296.428 24.2435 297.001 23.9389C297.576 23.6343 298.026 23.2137 298.353 22.6767C298.68 22.14 298.844 21.534 298.844 20.8598C298.844 20.1851 298.68 19.5795 298.353 19.0425C298.026 18.5055 297.576 18.0848 297.001 17.7803ZM297.212 22.1023C296.998 22.4722 296.705 22.7603 296.331 22.9665C295.958 23.1729 295.537 23.2759 295.07 23.2759C294.603 23.2759 294.183 23.1729 293.809 22.9665C293.435 22.7603 293.142 22.4722 292.929 22.1023C292.715 21.7324 292.608 21.3178 292.608 20.8598C292.608 20.4013 292.715 19.9871 292.929 19.617C293.142 19.2471 293.435 18.9588 293.809 18.7528C294.183 18.5466 294.603 18.4432 295.07 18.4432C295.537 18.4432 295.958 18.5466 296.331 18.7528C296.705 18.9588 296.998 19.2471 297.212 19.617C297.426 19.9871 297.533 20.4013 297.533 20.8598C297.533 21.3178 297.426 21.7324 297.212 22.1023Z" fill="white"/>
<path fill-rule="evenodd" clip-rule="evenodd" d="M308.841 17.8491C308.261 17.5641 307.598 17.4216 306.85 17.4216H303.788V24.2976H306.85C307.598 24.2976 308.261 24.1553 308.841 23.8705C309.422 23.5854 309.872 23.1827 310.193 22.6619C310.513 22.1415 310.673 21.5406 310.673 20.8598C310.673 20.1785 310.513 19.5778 310.193 19.0574C309.872 18.5366 309.422 18.1338 308.841 17.8491ZM309.047 22.1023C308.836 22.4591 308.536 22.7344 308.146 22.9273C307.756 23.1204 307.304 23.2171 306.789 23.2171H305.089V18.5022H306.789C307.304 18.5022 307.756 18.5989 308.146 18.792C308.536 18.9851 308.836 19.2602 309.047 19.617C309.257 19.9743 309.362 20.388 309.362 20.8598C309.362 21.3314 309.257 21.7453 309.047 22.1023Z" fill="white"/>
<path fill-rule="evenodd" clip-rule="evenodd" d="M319.009 19.0426C318.683 18.5057 318.232 18.0849 317.658 17.7804C317.084 17.4758 316.441 17.3238 315.726 17.3238C315.013 17.3238 314.369 17.4758 313.795 17.7804C313.222 18.0849 312.771 18.5074 312.444 19.0473C312.117 19.5877 311.954 20.1917 311.954 20.8601C311.954 21.5277 312.117 22.1319 312.444 22.6721C312.771 23.2125 313.222 23.6345 313.795 23.9391C314.369 24.2437 315.013 24.3961 315.726 24.3961C316.441 24.3961 317.084 24.2437 317.658 23.9391C318.232 23.6345 318.683 23.2139 319.009 22.6767C319.336 22.1404 319.5 21.5342 319.5 20.8601C319.5 20.1852 319.336 19.5798 319.009 19.0426ZM317.869 22.1023C317.655 22.4725 317.362 22.7605 316.987 22.9665C316.614 23.1731 316.193 23.2763 315.726 23.2763C315.259 23.2763 314.84 23.1731 314.465 22.9665C314.092 22.7605 313.798 22.4725 313.585 22.1023C313.372 21.7325 313.265 21.318 313.265 20.8601C313.265 20.4013 313.372 19.9874 313.585 19.6171C313.798 19.2474 314.092 18.9591 314.465 18.7529C314.84 18.5466 315.259 18.4432 315.726 18.4432C316.193 18.4432 316.614 18.5466 316.987 18.7529C317.362 18.9591 317.655 19.2474 317.869 19.6171C318.082 19.9874 318.189 20.4013 318.189 20.8601C318.189 21.318 318.082 21.7325 317.869 22.1023Z" fill="white"/>
<path fill-rule="evenodd" clip-rule="evenodd" d="M257.774 27.9848C259.129 28.5835 260.174 29.4383 260.91 30.5496C261.645 31.6612 262.014 32.9679 262.014 34.4688C262.014 35.9695 261.645 37.2712 260.91 38.3728C260.174 39.4752 259.129 40.3249 257.774 40.9238C256.419 41.5221 254.822 41.8214 252.983 41.8214H249.44V47.0367H243.691V27.0872H252.983C254.822 27.0872 256.419 27.3866 257.774 27.9848ZM255.306 36.6202C255.905 36.117 256.206 35.3998 256.206 34.4688C256.206 33.5378 255.905 32.8156 255.306 32.3025C254.706 31.7898 253.815 31.533 252.634 31.533H249.44V37.3756H252.634C253.815 37.3756 254.706 37.1241 255.306 36.6202Z" fill="white"/>
<path fill-rule="evenodd" clip-rule="evenodd" d="M263.059 27.0872H268.808V47.0367H263.059V27.0872Z" fill="white"/>
<path fill-rule="evenodd" clip-rule="evenodd" d="M285.94 43.1607H277.345L275.747 47.0367H269.882L278.855 27.0872H284.517L293.518 47.0367H287.537L285.94 43.1607ZM284.256 38.9999L281.642 32.6159L279.029 38.9999H284.256Z" fill="white"/>
<path fill-rule="evenodd" clip-rule="evenodd" d="M294.724 45.0131C293.05 43.3986 292.212 41.109 292.212 38.145V27.0872H297.961V37.9738C297.961 41.1661 299.248 42.7617 301.823 42.7617C304.378 42.7617 305.656 41.1661 305.656 37.9738V27.0872H311.319V38.145C311.319 41.109 310.48 43.3986 308.807 45.0131C307.133 46.6284 304.785 47.4358 301.765 47.4358C298.745 47.4358 296.397 46.6284 294.724 45.0131Z" fill="white"/>
<path fill-rule="evenodd" clip-rule="evenodd" d="M318.635 27.026H312.887V30.6522L318.635 27.026Z" fill="white"/>
<path fill-rule="evenodd" clip-rule="evenodd" d="M312.887 32.2913V46.9754H318.635V28.6649L312.887 32.2913Z" fill="white"/>
</g>
<defs>
<clipPath id="clip0_10_19">
<rect width="320" height="80" fill="white"/>
</clipPath>
</defs>
</svg>
