<svg width="280" height="70" viewBox="0 0 280 70" fill="none" xmlns="http://www.w3.org/2000/svg">
<g clip-path="url(#clip0_10_109)">
<path d="M5.40223 26.1651C5.35484 25.7747 5.16266 25.4715 4.82568 25.2558C4.48869 25.04 4.07537 24.9322 3.58569 24.9322C3.22765 24.9322 2.91436 24.9886 2.64583 25.1017C2.37993 25.2147 2.17195 25.37 2.02188 25.5679C1.87445 25.7656 1.80074 25.9904 1.80074 26.2421C1.80074 26.4528 1.85208 26.6338 1.95475 26.7854C2.06006 26.9344 2.19433 27.059 2.35755 27.1592C2.52077 27.2567 2.6919 27.3377 2.87092 27.4019C3.04994 27.4635 3.21449 27.5137 3.36455 27.5522L4.18594 27.7679C4.39655 27.8219 4.63086 27.8964 4.88887 27.9914C5.14949 28.0864 5.39829 28.2162 5.63522 28.3806C5.87479 28.5424 6.07225 28.7505 6.22757 29.0048C6.3829 29.259 6.46056 29.5712 6.46056 29.941C6.46056 30.3675 6.34604 30.7527 6.117 31.0969C5.89059 31.4412 5.55887 31.7148 5.12185 31.9177C4.68746 32.1206 4.15961 32.2221 3.5383 32.2221C2.95912 32.2221 2.45759 32.1309 2.03373 31.9485C1.61251 31.7661 1.28079 31.5118 1.03859 31.1856C0.79901 30.8594 0.663428 30.4804 0.631836 30.049H1.64278C1.6691 30.3469 1.77178 30.5935 1.9508 30.7887C2.13246 30.9814 2.3615 31.1252 2.63792 31.2203C2.91699 31.3128 3.21712 31.3589 3.5383 31.3589C3.91214 31.3589 4.2478 31.2999 4.5453 31.1817C4.84279 31.061 5.07841 30.894 5.25217 30.6808C5.42593 30.4651 5.51281 30.2134 5.51281 29.9257C5.51281 29.6637 5.43778 29.4505 5.28771 29.2861C5.13765 29.1217 4.9402 28.9881 4.69536 28.8853C4.45052 28.7825 4.18594 28.6927 3.90161 28.6156L2.90647 28.3382C2.27462 28.161 1.77442 27.9079 1.40584 27.5791C1.03727 27.2503 0.85298 26.8201 0.85298 26.2884C0.85298 25.8466 0.975399 25.4612 1.22024 25.1325C1.4677 24.8011 1.79943 24.5442 2.21538 24.3618C2.63398 24.1769 3.10128 24.0845 3.61729 24.0845C4.13855 24.0845 4.6019 24.1757 5.00733 24.3581C5.41276 24.5378 5.73395 24.7845 5.97089 25.0978C6.21046 25.4112 6.33682 25.7669 6.34999 26.1651H5.40223ZM8.07077 32.0833V24.1924H12.9517V25.04H9.05012V27.7063H12.699V28.554H9.05012V31.2357H13.0149V32.0833H8.07077ZM21.2249 26.6582H20.2456C20.1876 26.3834 20.0863 26.142 19.9415 25.9339C19.7993 25.7259 19.6255 25.5512 19.4202 25.4099C19.2175 25.266 18.9924 25.1582 18.7449 25.0862C18.4974 25.0143 18.2395 24.9783 17.9709 24.9783C17.4813 24.9783 17.0376 25.0991 16.6401 25.3406C16.2452 25.582 15.9306 25.9377 15.6963 26.4078C15.4647 26.8779 15.3488 27.4546 15.3488 28.1379C15.3488 28.8211 15.4647 29.3978 15.6963 29.8678C15.9306 30.3379 16.2452 30.6936 16.6401 30.9351C17.0376 31.1765 17.4813 31.2973 17.9709 31.2973C18.2395 31.2973 18.4974 31.2613 18.7449 31.1895C18.9924 31.1175 19.2175 31.0109 19.4202 30.8696C19.6255 30.7258 19.7993 30.5498 19.9415 30.3418C20.0863 30.1311 20.1876 29.8897 20.2456 29.6174H21.2249C21.1512 30.0207 21.0169 30.3816 20.8221 30.7001C20.6273 31.0187 20.3851 31.2896 20.0955 31.5131C19.8059 31.734 19.4807 31.9022 19.1201 32.0178C18.762 32.1334 18.379 32.1912 17.9709 32.1912C17.2812 32.1912 16.6678 32.0268 16.1307 31.698C15.5936 31.3692 15.1711 30.9017 14.863 30.2955C14.555 29.6893 14.4011 28.9701 14.4011 28.1379C14.4011 27.3055 14.555 26.5864 14.863 25.9801C15.1711 25.3739 15.5936 24.9065 16.1307 24.5777C16.6678 24.2489 17.2812 24.0845 17.9709 24.0845C18.379 24.0845 18.762 24.1422 19.1201 24.2578C19.4807 24.3734 19.8059 24.543 20.0955 24.7665C20.3851 24.9874 20.6273 25.2571 20.8221 25.5756C21.0169 25.8915 21.1512 26.2524 21.2249 26.6582ZM22.8074 32.0833V24.1924H25.5402C26.172 24.1924 26.6907 24.2977 27.0961 24.5083C27.5015 24.7163 27.8016 25.0027 27.9964 25.3675C28.1913 25.7323 28.2887 26.1471 28.2887 26.6121C28.2887 27.077 28.1913 27.4893 27.9964 27.8488C27.8016 28.2084 27.5029 28.4911 27.1 28.6965C26.6973 28.8995 26.1826 29.0009 25.5559 29.0009H23.3445V28.1379H25.5243C25.9561 28.1379 26.3037 28.0762 26.5669 27.9529C26.8328 27.8296 27.025 27.655 27.1435 27.4289C27.2645 27.2003 27.3251 26.928 27.3251 26.6121C27.3251 26.2961 27.2645 26.02 27.1435 25.7836C27.0224 25.5474 26.8289 25.365 26.5629 25.2366C26.2971 25.1055 25.9456 25.04 25.5086 25.04H23.7868V32.0833H22.8074ZM26.6143 28.5385L28.6046 32.0833H27.4673L25.5086 28.5385H26.6143ZM29.9206 32.0833V24.1924H34.8016V25.04H30.8999V27.7063H34.5488V28.554H30.8999V31.2357H34.8648V32.0833H29.9206ZM36.1245 25.04V24.1924H42.1901V25.04H39.647V32.0833H38.6676V25.04H36.1245ZM43.0885 32.0833H42.0618L45.0315 24.1924H46.0424L49.0121 32.0833H47.9853L45.5686 25.4407H45.5054L43.0885 32.0833ZM43.4677 29.0009H47.6062V29.8486H43.4677V29.0009ZM50.2718 32.0833V24.1924H53.0045C53.6363 24.1924 54.155 24.2977 54.5604 24.5083C54.9658 24.7163 55.2659 25.0027 55.4608 25.3675C55.6556 25.7323 55.753 26.1471 55.753 26.6121C55.753 27.077 55.6556 27.4893 55.4608 27.8488C55.2659 28.2084 54.9672 28.4911 54.5643 28.6965C54.1616 28.8995 53.6469 29.0009 53.0203 29.0009H50.8088V28.1379H52.9886C53.4204 28.1379 53.768 28.0762 54.0312 27.9529C54.2972 27.8296 54.4893 27.655 54.6078 27.4289C54.7289 27.2003 54.7894 26.928 54.7894 26.6121C54.7894 26.2961 54.7289 26.02 54.6078 25.7836C54.4867 25.5474 54.2932 25.365 54.0272 25.2366C53.7614 25.1055 53.4099 25.04 52.9729 25.04H51.2512V32.0833H50.2718ZM54.0787 28.5385L56.069 32.0833H54.9316L52.9729 28.5385H54.0787ZM58.3643 24.1924V32.0833H57.3849V24.1924H58.3643ZM60.6597 32.0833H59.6329L62.6025 24.1924H63.6135L66.5831 32.0833H65.5564L63.1396 25.4407H63.0764L60.6597 32.0833ZM61.0387 29.0009H65.1773V29.8486H61.0387V29.0009ZM3.47511 45.6944H0.979348V37.8035H3.58569C4.37023 37.8035 5.04156 37.9614 5.59968 38.2774C6.1578 38.5908 6.58562 39.0415 6.8831 39.6298C7.1806 40.2155 7.32935 40.9167 7.32935 41.7335C7.32935 42.5555 7.17929 43.2632 6.87916 43.8566C6.57903 44.4474 6.14201 44.902 5.56809 45.2205C4.99417 45.5365 4.29651 45.6944 3.47511 45.6944ZM1.9587 44.8468H3.41193C4.08063 44.8468 4.63481 44.721 5.07446 44.4692C5.51412 44.2174 5.84188 43.8591 6.05776 43.3942C6.27364 42.9292 6.38158 42.3757 6.38158 41.7335C6.38158 41.0965 6.27497 40.5481 6.06172 40.0883C5.84847 39.6259 5.52992 39.2715 5.10606 39.0249C4.68219 38.7757 4.15435 38.6511 3.52251 38.6511H1.9587V44.8468ZM8.92376 45.6944H7.89701L10.8667 37.8035H11.8776L14.8473 45.6944H13.8205L11.4038 39.0518H11.3406L8.92376 45.6944ZM9.30286 42.612H13.4414V43.4597H9.30286V42.612ZM18.9582 45.6944V37.8035H24.4078V39.179H20.6681V41.0593H24.1274V42.4348H20.6681V44.3189H24.4236V45.6944H18.9582ZM28.6342 45.6944H25.7673V37.8035H28.6579C29.4714 37.8035 30.1717 37.9614 30.7587 38.2774C31.3458 38.5908 31.7973 39.0415 32.1133 39.6298C32.4319 40.218 32.5911 40.9218 32.5911 41.7413C32.5911 42.5632 32.4319 43.2696 32.1133 43.8604C31.7973 44.4512 31.3433 44.9046 30.7509 45.2205C30.1612 45.5365 29.4556 45.6944 28.6342 45.6944ZM27.4772 44.265H28.5631C29.0686 44.265 29.4938 44.1777 29.8386 44.003C30.1862 43.8257 30.4468 43.5522 30.6205 43.1823C30.7969 42.8099 30.8852 42.3295 30.8852 41.7413C30.8852 41.1582 30.7969 40.6817 30.6205 40.3117C30.4468 39.9419 30.1875 39.6696 29.8426 39.495C29.4977 39.3203 29.0726 39.233 28.5671 39.233H27.4772V44.265ZM38.8532 37.8035H40.5631V42.928C40.5631 43.5033 40.4223 44.0069 40.1406 44.4383C39.8615 44.8699 39.4706 45.2064 38.9677 45.4479C38.4649 45.6868 37.8791 45.8062 37.2105 45.8062C36.5391 45.8062 35.952 45.6868 35.4492 45.4479C34.9464 45.2064 34.5554 44.8699 34.2764 44.4383C33.9973 44.0069 33.8578 43.5033 33.8578 42.928V37.8035H35.5677V42.7855C35.5677 43.086 35.6348 43.3531 35.7691 43.5869C35.906 43.8206 36.0982 44.0042 36.3456 44.1378C36.5931 44.2714 36.8814 44.3382 37.2105 44.3382C37.5422 44.3382 37.8305 44.2714 38.0753 44.1378C38.3227 44.0042 38.5136 43.8206 38.6479 43.5869C38.7848 43.3531 38.8532 43.086 38.8532 42.7855V37.8035ZM49.1058 40.5661H47.3762C47.3446 40.3477 47.28 40.1538 47.1827 39.9843C47.0852 39.8122 46.9602 39.6658 46.8075 39.545C46.6549 39.4243 46.4784 39.3318 46.2783 39.2676C46.0809 39.2034 45.8664 39.1713 45.6347 39.1713C45.2161 39.1713 44.8514 39.2727 44.5408 39.4756C44.2301 39.676 43.9893 39.9688 43.8181 40.3541C43.647 40.7369 43.5614 41.2018 43.5614 41.749C43.5614 42.3115 43.647 42.7841 43.8181 43.1669C43.9919 43.5496 44.2341 43.8386 44.5447 44.0338C44.8554 44.229 45.2147 44.3266 45.6229 44.3266C45.8518 44.3266 46.0638 44.2971 46.2586 44.238C46.4561 44.1789 46.6312 44.0929 46.7838 43.9798C46.9366 43.8642 47.0629 43.7242 47.163 43.5598C47.2656 43.3954 47.3367 43.208 47.3762 42.9973L49.1058 43.0051C49.0611 43.3672 48.9492 43.7166 48.7702 44.053C48.5937 44.387 48.3555 44.6863 48.0554 44.9508C47.7579 45.2128 47.4025 45.4209 46.9892 45.575C46.5784 45.7265 46.1138 45.8024 45.5952 45.8024C44.8738 45.8024 44.2288 45.6431 43.6602 45.3245C43.0942 45.006 42.6466 44.545 42.3175 43.9413C41.991 43.3377 41.8278 42.6069 41.8278 41.749C41.8278 40.8885 41.9937 40.1564 42.3254 39.5527C42.6572 38.9491 43.1073 38.4893 43.676 38.1733C44.2446 37.8548 44.8844 37.6956 45.5952 37.6956C46.0638 37.6956 46.4982 37.7597 46.8983 37.8882C47.3012 38.0167 47.6579 38.2042 47.9686 38.4508C48.2792 38.6948 48.532 38.9941 48.7268 39.3486C48.9242 39.703 49.0505 40.1088 49.1058 40.5661ZM51.574 45.6944H49.7416L52.5336 37.8035H54.7371L57.5251 45.6944H55.6928L53.6669 39.6067H53.6038L51.574 45.6944ZM51.4594 42.5928H55.7876V43.8951H51.4594V42.5928ZM65.2543 40.5661H63.5246C63.493 40.3477 63.4286 40.1538 63.3311 39.9843C63.2338 39.8122 63.1087 39.6658 62.956 39.545C62.8033 39.4243 62.6269 39.3318 62.4268 39.2676C62.2293 39.2034 62.0148 39.1713 61.7831 39.1713C61.3645 39.1713 60.9999 39.2727 60.6892 39.4756C60.3786 39.676 60.1377 39.9688 59.9666 40.3541C59.7954 40.7369 59.7099 41.2018 59.7099 41.749C59.7099 42.3115 59.7954 42.7841 59.9666 43.1669C60.1403 43.5496 60.3825 43.8386 60.6932 44.0338C61.0038 44.229 61.3632 44.3266 61.7713 44.3266C62.0004 44.3266 62.2122 44.2971 62.4071 44.238C62.6045 44.1789 62.7796 44.0929 62.9322 43.9798C63.085 43.8642 63.2113 43.7242 63.3114 43.5598C63.414 43.3954 63.4852 43.208 63.5246 42.9973L65.2543 43.0051C65.2095 43.3672 65.0977 43.7166 64.9186 44.053C64.7423 44.387 64.504 44.6863 64.2039 44.9508C63.9064 45.2128 63.5509 45.4209 63.1376 45.575C62.727 45.7265 62.2622 45.8024 61.7437 45.8024C61.0223 45.8024 60.3773 45.6431 59.8086 45.3245C59.2426 45.006 58.795 44.545 58.466 43.9413C58.1396 43.3377 57.9763 42.6069 57.9763 41.749C57.9763 40.8885 58.1421 40.1564 58.4739 39.5527C58.8056 38.9491 59.2558 38.4893 59.8244 38.1733C60.3931 37.8548 61.0328 37.6956 61.7437 37.6956C62.2122 37.6956 62.6467 37.7597 63.0468 37.8882C63.4496 38.0167 63.8063 38.2042 64.117 38.4508C64.4276 38.6948 64.6804 38.9941 64.8752 39.3486C65.0727 39.703 65.199 40.1088 65.2543 40.5661ZM61.3211 45.6713H62.0951L62.032 46.0065C62.3031 46.0477 62.5242 46.1465 62.6954 46.3033C62.8691 46.4599 62.9572 46.6731 62.9599 46.9428C62.9625 47.3255 62.7809 47.6299 62.415 47.856C62.049 48.0846 61.5356 48.1989 60.8749 48.1989L60.859 47.4668C61.1908 47.4668 61.4501 47.427 61.6371 47.3474C61.8266 47.2703 61.9253 47.1496 61.9332 46.9852C61.9385 46.8285 61.8766 46.7091 61.7476 46.6269C61.6186 46.5447 61.4171 46.4869 61.1434 46.4535L61.3211 45.6713ZM67.7224 45.6944H65.8901L68.682 37.8035H70.8855L73.6736 45.6944H71.8412L69.8154 39.6067H69.7522L67.7224 45.6944ZM67.6079 42.5928H71.936V43.8951H67.6079V42.5928ZM68.6504 37.0251L67.7184 37.0136C67.7184 36.523 67.8422 36.1466 68.0897 35.8846C68.3371 35.6226 68.6413 35.4904 69.0019 35.4878C69.1862 35.4878 69.3441 35.5173 69.4758 35.5764C69.6074 35.6329 69.7272 35.6997 69.8352 35.7768C69.9431 35.8538 70.0457 35.9219 70.1432 35.981C70.2405 36.0375 70.3459 36.0657 70.4591 36.0657C70.6118 36.0632 70.7276 36.008 70.8066 35.9001C70.8882 35.7896 70.929 35.6457 70.929 35.4685L71.8491 35.4955C71.8439 35.981 71.7175 36.3561 71.4701 36.6206C71.2225 36.8826 70.9198 37.0148 70.5618 37.0175C70.367 37.02 70.2024 36.9918 70.0682 36.9327C69.9365 36.8736 69.8206 36.8068 69.7206 36.7323C69.6206 36.6553 69.5232 36.5872 69.4284 36.5281C69.3336 36.469 69.227 36.4395 69.1085 36.4395C68.9717 36.4395 68.8611 36.4922 68.7768 36.5975C68.6926 36.7028 68.6504 36.8454 68.6504 37.0251ZM81.6989 41.749C81.6989 42.6095 81.5317 43.3416 81.1974 43.9451C80.8657 44.5488 80.4129 45.0099 79.839 45.3284C79.2677 45.6444 78.6253 45.8024 77.9118 45.8024C77.1931 45.8024 76.5481 45.6431 75.9769 45.3245C75.4055 45.006 74.954 44.545 74.6223 43.9413C74.2906 43.3377 74.1248 42.6069 74.1248 41.749C74.1248 40.8885 74.2906 40.1564 74.6223 39.5527C74.954 38.9491 75.4055 38.4893 75.9769 38.1733C76.5481 37.8548 77.1931 37.6956 77.9118 37.6956C78.6253 37.6956 79.2677 37.8548 79.839 38.1733C80.4129 38.4893 80.8657 38.9491 81.1974 39.5527C81.5317 40.1564 81.6989 40.8885 81.6989 41.749ZM79.9653 41.749C79.9653 41.1915 79.8797 40.7215 79.7086 40.3388C79.5401 39.956 79.3019 39.6658 78.9939 39.4679C78.6859 39.2702 78.3252 39.1713 77.9118 39.1713C77.4985 39.1713 77.1378 39.2702 76.8298 39.4679C76.5218 39.6658 76.2823 39.956 76.1111 40.3388C75.9426 40.7215 75.8584 41.1915 75.8584 41.749C75.8584 42.3063 75.9426 42.7764 76.1111 43.1592C76.2823 43.5418 76.5218 43.8322 76.8298 44.0299C77.1378 44.2277 77.4985 44.3266 77.9118 44.3266C78.3252 44.3266 78.6859 44.2277 78.9939 44.0299C79.3019 43.8322 79.5401 43.5418 79.7086 43.1592C79.8797 42.7764 79.9653 42.3063 79.9653 41.749ZM89.7184 41.3251V42.1728H86.1801V41.3251H89.7184ZM99.0351 39.7762C98.9877 39.3858 98.7955 39.0827 98.4585 38.8669C98.1216 38.6511 97.7081 38.5433 97.2185 38.5433C96.8605 38.5433 96.5472 38.5998 96.2786 38.7128C96.0128 38.8258 95.8047 38.9812 95.6547 39.179C95.5073 39.3768 95.4336 39.6015 95.4336 39.8532C95.4336 40.0639 95.4849 40.2449 95.5876 40.3965C95.6928 40.5456 95.8272 40.6701 95.9904 40.7703C96.1536 40.8678 96.3247 40.9488 96.5037 41.013C96.6828 41.0746 96.8473 41.1248 96.9974 41.1633L97.8187 41.379C98.0294 41.433 98.2637 41.5075 98.5216 41.6026C98.7823 41.6975 99.0311 41.8273 99.2681 41.9917C99.5076 42.1535 99.7049 42.3616 99.8604 42.6159C100.016 42.8701 100.094 43.1823 100.094 43.5522C100.094 43.9786 99.9789 44.3639 99.7498 44.708C99.5235 45.0523 99.1917 45.3259 98.7547 45.5288C98.3203 45.7317 97.7924 45.8332 97.1712 45.8332C96.5919 45.8332 96.0904 45.742 95.6665 45.5596C95.2453 45.3772 94.9136 45.1229 94.6714 44.7967C94.4318 44.4705 94.2962 44.0915 94.2646 43.6601H95.2756C95.3019 43.9581 95.4046 44.2046 95.5836 44.3998C95.7653 44.5925 95.9944 44.7363 96.2708 44.8314C96.5498 44.9239 96.8499 44.97 97.1712 44.97C97.5449 44.97 97.8806 44.911 98.1782 44.7928C98.4756 44.6722 98.7113 44.5051 98.885 44.2919C99.0587 44.0762 99.1456 43.8245 99.1456 43.5368C99.1456 43.2748 99.0706 43.0616 98.9205 42.8972C98.7705 42.7328 98.5731 42.5992 98.3282 42.4964C98.0833 42.3937 97.8187 42.3038 97.5345 42.2267L96.5393 41.9493C95.9075 41.7721 95.4073 41.519 95.0387 41.1902C94.6701 40.8614 94.4859 40.4312 94.4859 39.8995C94.4859 39.4577 94.6082 39.0723 94.853 38.7436C95.1006 38.4122 95.4323 38.1553 95.8482 37.973C96.2668 37.788 96.7341 37.6956 97.2501 37.6956C97.7714 37.6956 98.2348 37.7868 98.6401 37.9692C99.0456 38.1489 99.3668 38.3956 99.6037 38.7089C99.8434 39.0223 99.97 39.378 99.9829 39.7762H99.0351ZM101.704 45.6944V37.8035H106.584V38.6511H102.683V41.3174H106.332V42.1651H102.683V44.8468H106.648V45.6944H101.704ZM110.845 45.6944H108.35V37.8035H110.956C111.741 37.8035 112.412 37.9614 112.971 38.2774C113.529 38.5908 113.956 39.0415 114.254 39.6298C114.551 40.2155 114.699 40.9167 114.699 41.7335C114.699 42.5555 114.55 43.2632 114.25 43.8566C113.949 44.4474 113.513 44.902 112.939 45.2205C112.365 45.5365 111.667 45.6944 110.845 45.6944ZM109.33 44.8468H110.782C111.451 44.8468 112.005 44.721 112.444 44.4692C112.885 44.2174 113.213 43.8591 113.428 43.3942C113.644 42.9292 113.752 42.3757 113.752 41.7335C113.752 41.0965 113.645 40.5481 113.432 40.0883C113.219 39.6259 112.901 39.2715 112.476 39.0249C112.053 38.7757 111.525 38.6511 110.893 38.6511H109.33V44.8468ZM121.65 37.8035H122.629V43.0281C122.629 43.5676 122.5 44.0492 122.238 44.473C121.98 44.8943 121.616 45.2269 121.144 45.4709C120.673 45.7124 120.12 45.8332 119.486 45.8332C118.852 45.8332 118.299 45.7124 117.827 45.4709C117.356 45.2269 116.99 44.8943 116.729 44.473C116.472 44.0492 116.342 43.5676 116.342 43.0281V37.8035H117.322V42.9511C117.322 43.3364 117.409 43.6793 117.582 43.9798C117.756 44.2778 118.004 44.5128 118.325 44.685C118.649 44.8544 119.036 44.9392 119.486 44.9392C119.936 44.9392 120.323 44.8544 120.647 44.685C120.971 44.5128 121.218 44.2778 121.389 43.9798C121.563 43.6793 121.65 43.3364 121.65 42.9511V37.8035ZM131.093 40.2693H130.113C130.056 39.9945 129.955 39.7531 129.809 39.545C129.668 39.337 129.494 39.1623 129.288 39.021C129.086 38.8771 128.861 38.7693 128.613 38.6974C128.366 38.6254 128.107 38.5894 127.839 38.5894C127.349 38.5894 126.906 38.7102 126.508 38.9517C126.114 39.1931 125.799 39.5488 125.565 40.0189C125.332 40.489 125.217 41.0657 125.217 41.749C125.217 42.4322 125.332 43.0089 125.565 43.4789C125.799 43.949 126.114 44.3048 126.508 44.5462C126.906 44.7877 127.349 44.9084 127.839 44.9084C128.107 44.9084 128.366 44.8724 128.613 44.8006C128.861 44.7286 129.086 44.622 129.288 44.4807C129.494 44.3369 129.668 44.161 129.809 43.9529C129.955 43.7422 130.056 43.5008 130.113 43.2285H131.093C131.019 43.6318 130.886 43.9927 130.69 44.3112C130.496 44.6298 130.253 44.9007 129.964 45.1242C129.674 45.3451 129.349 45.5133 128.988 45.6289C128.631 45.7445 128.247 45.8024 127.839 45.8024C127.149 45.8024 126.536 45.638 125.999 45.3092C125.462 44.9803 125.039 44.5128 124.732 43.9066C124.424 43.3004 124.269 42.5812 124.269 41.749C124.269 40.9167 124.424 40.1975 124.732 39.5912C125.039 38.985 125.462 38.5176 125.999 38.1888C126.536 37.86 127.149 37.6956 127.839 37.6956C128.247 37.6956 128.631 37.7533 128.988 37.8689C129.349 37.9845 129.674 38.1541 129.964 38.3776C130.253 38.5985 130.496 38.8682 130.69 39.1867C130.886 39.5027 131.019 39.8635 131.093 40.2693Z" fill="black"/>
<path d="M146.586 21.6749V48.3251" stroke="black" stroke-width="0.319803"/>
<path fill-rule="evenodd" clip-rule="evenodd" d="M187.191 17.006C192.694 14.3649 198.166 12.3594 203.566 11.9601C203.608 11.0381 203.65 10.1238 203.692 9.21727C198.285 9.77161 192.821 11.5587 187.328 14.0248C187.282 15.0164 187.237 16.0103 187.191 17.006Z" fill="#004394"/>
<path fill-rule="evenodd" clip-rule="evenodd" d="M203.626 14.0334C198.576 14.3157 193.457 16.1188 188.308 18.5628C188.264 19.5495 188.218 20.5395 188.172 21.5327C193.327 18.9663 198.452 17.0129 203.497 16.8458C203.54 15.9009 203.583 14.9633 203.626 14.0334Z" fill="#FCB900"/>
<path fill-rule="evenodd" clip-rule="evenodd" d="M185.634 27.8925C192.035 24.419 198.414 21.4219 204.637 21.8386C204.682 20.8644 204.727 19.8963 204.771 18.9341C198.541 18.6615 192.17 21.469 185.773 24.8585C185.727 25.8687 185.68 26.88 185.634 27.8925Z" fill="#FCB900"/>
<path fill-rule="evenodd" clip-rule="evenodd" d="M205.206 29.1623C205.16 30.1621 205.114 31.1667 205.068 32.1766C191.464 30.2325 176.981 47.4998 163.378 45.5656L163.963 42.648C177.435 44.1758 191.758 27.1132 205.206 29.1623Z" fill="#E63114"/>
<path fill-rule="evenodd" clip-rule="evenodd" d="M207.777 35.0116C207.73 36.0275 207.684 37.0436 207.637 38.0596C199.957 35.175 191.925 39.9492 183.921 44.1245C175.954 48.4099 168.013 52.101 160.327 50.2304L160.909 47.3308C176.14 51.7803 192.582 29.7756 207.777 35.0116Z" fill="#E63114"/>
<path fill-rule="evenodd" clip-rule="evenodd" d="M206.312 39.9701C206.266 40.9915 206.219 42.0152 206.172 43.0411C198.799 41.22 191.133 45.7924 183.508 49.5146C175.901 53.3958 168.332 56.4316 160.942 55.5834L161.526 52.6701C168.756 53.7386 176.187 50.419 183.647 46.4723C191.282 42.5602 198.947 37.9925 206.312 39.9701Z" fill="#E63114"/>
<path fill-rule="evenodd" clip-rule="evenodd" d="M178.962 63.6102C178.918 64.562 178.875 65.5098 178.831 66.4535C174.456 67.7798 170.1 68.6435 165.744 69.5455L166.276 66.8982C170.489 66.1305 174.715 65.0989 178.962 63.6102Z" fill="#007521"/>
<path fill-rule="evenodd" clip-rule="evenodd" d="M204.343 48.0025C197.289 47.3911 190.012 51.6833 182.785 54.8668C175.39 58.3483 168.047 60.671 160.813 60.6324L161.401 57.7012C168.466 58.121 175.674 55.4564 182.924 51.8411C190.162 48.4111 197.444 44.0343 204.487 44.8593L204.343 48.0025Z" fill="#007521"/>
<path fill-rule="evenodd" clip-rule="evenodd" d="M194.518 55.2422C189.979 56.8142 185.408 59.0507 180.861 60.7717C175.103 63.0579 169.383 64.5174 163.692 65.3167L164.249 62.5448C169.786 61.9714 175.374 60.2711 180.996 57.8192C185.551 55.9055 190.13 53.5002 194.672 51.8984L194.518 55.2422Z" fill="#007521"/>
<path fill-rule="evenodd" clip-rule="evenodd" d="M201.698 4.81308C201.658 5.67722 201.618 6.55025 201.578 7.43229C197.46 8.09879 193.313 9.38241 189.147 11.0622L189.28 8.17076C193.437 6.66258 197.576 5.53835 201.698 4.81308Z" fill="#004394"/>
<path fill-rule="evenodd" clip-rule="evenodd" d="M194.823 1.87019C196.792 1.37396 198.761 0.918631 200.73 0.454483C200.722 1.29809 200.715 2.15015 200.708 3.011C198.707 3.43316 196.706 3.91355 194.705 4.47242L194.823 1.87019Z" fill="#004394"/>
<path fill-rule="evenodd" clip-rule="evenodd" d="M203.713 26.7924C195.737 26.4026 187.479 32.1319 179.294 36.3141L179.434 33.2484C187.62 29.0578 195.869 23.5122 203.848 23.8456C203.803 24.8208 203.758 25.8033 203.713 26.7924Z" fill="#FCB900"/>
<path fill-rule="evenodd" clip-rule="evenodd" d="M216.619 47.1672H214.485L214.043 48.1471H213.452L215.271 44.2273H215.839L217.665 48.1471H217.062L216.619 47.1672ZM216.419 46.7192L215.552 44.7985L214.685 46.7192H216.419Z" fill="#1B1918"/>
<path fill-rule="evenodd" clip-rule="evenodd" d="M222.201 48.5053C222.071 48.6548 221.92 48.7685 221.748 48.847C221.576 48.9251 221.39 48.9647 221.191 48.9647C220.939 48.9647 220.703 48.9059 220.483 48.7883C220.262 48.6707 220.011 48.4699 219.728 48.1861C219.35 48.1674 219.008 48.0685 218.704 47.8894C218.399 47.7103 218.162 47.4724 217.992 47.1756C217.822 46.879 217.736 46.5493 217.736 46.1873C217.736 45.8102 217.829 45.4685 218.014 45.1624C218.201 44.8563 218.456 44.6164 218.781 44.4429C219.106 44.2694 219.471 44.1824 219.878 44.1824C220.278 44.1824 220.642 44.2694 220.968 44.4429C221.293 44.6164 221.547 44.8555 221.731 45.1595C221.914 45.4641 222.006 45.8065 222.006 46.1873C222.006 46.5083 221.94 46.8033 221.808 47.0719C221.676 47.3407 221.491 47.5668 221.252 47.7492C221.013 47.9326 220.738 48.0594 220.428 48.1301C220.562 48.2683 220.691 48.3681 220.815 48.4298C220.94 48.4913 221.067 48.5223 221.197 48.5223C221.48 48.5223 221.725 48.4103 221.931 48.1861L222.201 48.5053ZM218.514 46.9571C218.65 47.1868 218.837 47.3671 219.077 47.4976C219.316 47.6283 219.583 47.6933 219.878 47.6933C220.168 47.6933 220.432 47.6283 220.669 47.4976C220.906 47.3671 221.093 47.1868 221.229 46.9571C221.364 46.7276 221.432 46.4709 221.432 46.1873C221.432 45.9037 221.364 45.6466 221.229 45.4173C221.093 45.1877 220.906 45.0077 220.669 44.8769C220.432 44.7462 220.168 44.6809 219.878 44.6809C219.583 44.6809 219.316 44.7462 219.077 44.8769C218.837 45.0077 218.65 45.1877 218.514 45.4173C218.378 45.6466 218.31 45.9037 218.31 46.1873C218.31 46.4709 218.378 46.7276 218.514 46.9571Z" fill="#1B1918"/>
<path fill-rule="evenodd" clip-rule="evenodd" d="M223.202 47.744C222.904 47.4451 222.754 47.0158 222.754 46.4558V44.2274H223.328V46.4337C223.328 47.2735 223.705 47.6934 224.458 47.6934C224.826 47.6934 225.107 47.5898 225.302 47.3826C225.498 47.1755 225.595 46.8592 225.595 46.4337V44.2274H226.151V46.4558C226.151 47.0196 226.003 47.4499 225.704 47.7466C225.406 48.0435 224.988 48.1917 224.453 48.1917C223.917 48.1917 223.5 48.0426 223.202 47.744Z" fill="#1B1918"/>
<path fill-rule="evenodd" clip-rule="evenodd" d="M227.234 44.2274H227.808V48.1471H227.234V44.2274Z" fill="#1B1918"/>
<path fill-rule="evenodd" clip-rule="evenodd" d="M231.356 44.7146H229.978V44.2273H233.301V44.7146H231.924V48.1471H231.356V44.7146Z" fill="#1B1918"/>
<path fill-rule="evenodd" clip-rule="evenodd" d="M236.79 47.6599V48.147H233.875V44.2273H236.71V44.7146H234.449V45.9184H236.464V46.3943H234.449V47.6599H236.79Z" fill="#1B1918"/>
<path fill-rule="evenodd" clip-rule="evenodd" d="M241.289 48.1471L241.283 45.2912L239.831 47.6712H239.567L238.116 45.3081V48.1471H237.565V44.2273H238.036L239.711 46.9824L241.364 44.2273H241.834L241.84 48.1471H241.289Z" fill="#1B1918"/>
<path fill-rule="evenodd" clip-rule="evenodd" d="M245.295 44.9666H244.01V44.2273H247.51V44.9666H246.226V48.147H245.295V44.9666Z" fill="#1B1918"/>
<path fill-rule="evenodd" clip-rule="evenodd" d="M250.53 48.1471L249.756 47.0552H249.71H248.901V48.1471H247.97V44.2273H249.71C250.066 44.2273 250.375 44.2854 250.637 44.4012C250.899 44.5167 251.101 44.681 251.243 44.8939C251.384 45.1065 251.455 45.3584 251.455 45.6494C251.455 45.9408 251.383 46.1918 251.24 46.4027C251.096 46.6137 250.892 46.7751 250.628 46.8871L251.529 48.1471H250.53ZM250.295 45.143C250.15 45.0255 249.937 44.9666 249.658 44.9666H248.901V46.3327H249.658C249.937 46.3327 250.15 46.2733 250.295 46.1535C250.441 46.0341 250.513 45.8661 250.513 45.6494C250.513 45.4293 250.441 45.2605 250.295 45.143Z" fill="#1B1918"/>
<path fill-rule="evenodd" clip-rule="evenodd" d="M254.982 47.3073H253.117L252.761 48.1471H251.809L253.599 44.2274H254.517L256.314 48.1471H255.337L254.982 47.3073ZM254.689 46.6184L254.052 45.1176L253.415 46.6184H254.689Z" fill="#1B1918"/>
<path fill-rule="evenodd" clip-rule="evenodd" d="M260.224 46.4643C260.353 46.6307 260.418 46.8348 260.418 47.0774C260.418 47.421 260.281 47.6849 260.008 47.8698C259.734 48.0545 259.336 48.147 258.812 48.147H256.734V44.2272H258.697C259.186 44.2272 259.563 44.3189 259.825 44.5018C260.086 44.6847 260.218 44.9329 260.218 45.2465C260.218 45.4369 260.171 45.6068 260.077 45.7562C259.984 45.9052 259.852 46.0229 259.685 46.1088C259.914 46.1798 260.093 46.2983 260.224 46.4643ZM257.658 44.9105V45.8344H258.583C258.812 45.8344 258.986 45.7953 259.105 45.7168C259.223 45.6385 259.282 45.5229 259.282 45.3696C259.282 45.2168 259.223 45.1017 259.105 45.0254C258.986 44.9489 258.812 44.9105 258.583 44.9105H257.658ZM259.297 47.3464C259.421 47.2678 259.483 47.1465 259.483 46.9824C259.483 46.6575 259.236 46.4952 258.743 46.4952H257.658V47.4639H258.743C258.988 47.4639 259.172 47.4248 259.297 47.3464Z" fill="#1B1918"/>
<path fill-rule="evenodd" clip-rule="evenodd" d="M263.728 47.3073H261.863L261.507 48.1471H260.554L262.345 44.2274H263.264L265.06 48.1471H264.084L263.728 47.3073ZM263.435 46.6184L262.798 45.1176L262.162 46.6184H263.435Z" fill="#1B1918"/>
<path fill-rule="evenodd" clip-rule="evenodd" d="M265.48 44.2273H266.41V47.4079H268.424V48.147H265.48V44.2273Z" fill="#1B1918"/>
<path fill-rule="evenodd" clip-rule="evenodd" d="M272.58 44.2273V48.147H271.651V46.5399H269.825V48.147H268.896V44.2273H269.825V45.7727H271.651V44.2273H272.58Z" fill="#1B1918"/>
<path fill-rule="evenodd" clip-rule="evenodd" d="M274.355 47.951C274.02 47.7755 273.758 47.5339 273.569 47.2259C273.38 46.918 273.285 46.572 273.285 46.1873C273.285 45.8028 273.38 45.4566 273.569 45.1486C273.758 44.8406 274.02 44.599 274.355 44.4232C274.69 44.2479 275.066 44.1603 275.483 44.1603C275.9 44.1603 276.275 44.2479 276.608 44.4232C276.941 44.599 277.203 44.8406 277.394 45.1486C277.585 45.4566 277.681 45.8028 277.681 46.1873C277.681 46.572 277.585 46.918 277.394 47.2259C277.203 47.5339 276.941 47.7755 276.608 47.951C276.275 48.1267 275.9 48.2143 275.483 48.2143C275.066 48.2143 274.69 48.1267 274.355 47.951ZM276.126 47.2819C276.317 47.1755 276.467 47.0271 276.576 46.8367C276.685 46.6463 276.74 46.4298 276.74 46.1873C276.74 45.9447 276.685 45.728 276.576 45.5375C276.467 45.3473 276.317 45.1989 276.126 45.0922C275.935 44.986 275.72 44.9329 275.483 44.9329C275.246 44.9329 275.032 44.986 274.84 45.0922C274.649 45.1989 274.499 45.3473 274.39 45.5375C274.28 45.728 274.227 45.9447 274.227 46.1873C274.227 46.4298 274.28 46.6463 274.39 46.8367C274.499 47.0271 274.649 47.1755 274.84 47.2819C275.032 47.3883 275.246 47.4414 275.483 47.4414C275.72 47.4414 275.935 47.3883 276.126 47.2819Z" fill="#1B1918"/>
<path fill-rule="evenodd" clip-rule="evenodd" d="M278.109 48.0714C278.033 47.9985 277.994 47.9063 277.994 47.7944C277.994 47.6862 278.033 47.5955 278.109 47.5226C278.185 47.4499 278.277 47.4135 278.385 47.4135C278.491 47.4135 278.582 47.4488 278.655 47.5198C278.728 47.5909 278.763 47.6824 278.763 47.7944C278.763 47.9063 278.727 47.9985 278.652 48.0714C278.577 48.1443 278.488 48.1805 278.385 48.1805C278.277 48.1805 278.185 48.1443 278.109 48.0714Z" fill="#1B1918"/>
<path fill-rule="evenodd" clip-rule="evenodd" d="M216.619 53.6488H214.485L214.043 54.6287H213.452L215.271 50.7089H215.839L217.665 54.6287H217.062L216.619 53.6488ZM216.419 53.2008L215.552 51.2802L214.685 53.2008H216.419Z" fill="#1B1918"/>
<path fill-rule="evenodd" clip-rule="evenodd" d="M222.201 54.987C222.071 55.1365 221.92 55.2503 221.748 55.3288C221.576 55.4069 221.39 55.4464 221.191 55.4464C220.939 55.4464 220.703 55.3875 220.483 55.27C220.262 55.1524 220.011 54.9517 219.728 54.6679C219.35 54.6491 219.008 54.5503 218.704 54.371C218.399 54.192 218.162 53.9541 217.992 53.6573C217.822 53.3607 217.736 53.031 217.736 52.6691C217.736 52.2919 217.829 51.9502 218.014 51.644C218.201 51.338 218.456 51.0982 218.781 50.9246C219.106 50.7512 219.471 50.6642 219.878 50.6642C220.278 50.6642 220.642 50.7512 220.968 50.9246C221.293 51.0982 221.547 51.337 221.731 51.6413C221.914 51.9458 222.006 52.2882 222.006 52.6691C222.006 52.99 221.94 53.2849 221.808 53.5535C221.676 53.8224 221.491 54.0485 221.252 54.231C221.013 54.4143 220.738 54.5412 220.428 54.6118C220.562 54.75 220.691 54.8499 220.815 54.9113C220.94 54.973 221.067 55.004 221.197 55.004C221.48 55.004 221.725 54.892 221.931 54.6679L222.201 54.987ZM218.514 53.4389C218.65 53.6685 218.837 53.8487 219.077 53.9793C219.316 54.1101 219.583 54.175 219.878 54.175C220.168 54.175 220.432 54.1101 220.669 53.9793C220.906 53.8487 221.093 53.6685 221.229 53.4389C221.364 53.2093 221.432 52.9526 221.432 52.6691C221.432 52.3855 221.364 52.1284 221.229 51.899C221.093 51.6694 220.906 51.4894 220.669 51.3587C220.432 51.2279 220.168 51.1625 219.878 51.1625C219.583 51.1625 219.316 51.2279 219.077 51.3587C218.837 51.4894 218.65 51.6694 218.514 51.899C218.378 52.1284 218.31 52.3855 218.31 52.6691C218.31 52.9526 218.378 53.2093 218.514 53.4389Z" fill="#1B1918"/>
<path fill-rule="evenodd" clip-rule="evenodd" d="M223.202 54.2258C222.904 53.9268 222.754 53.4976 222.754 52.9375V50.709H223.328V52.9153C223.328 53.7552 223.705 54.1751 224.458 54.1751C224.826 54.1751 225.107 54.0716 225.302 53.8643C225.498 53.6572 225.595 53.341 225.595 52.9153V50.709H226.151V52.9375C226.151 53.5013 226.003 53.9316 225.704 54.2281C225.406 54.5252 224.988 54.6734 224.453 54.6734C223.917 54.6734 223.5 54.5243 223.202 54.2258Z" fill="#1B1918"/>
<path fill-rule="evenodd" clip-rule="evenodd" d="M227.234 50.709H227.808V54.6288H227.234V50.709Z" fill="#1B1918"/>
<path fill-rule="evenodd" clip-rule="evenodd" d="M231.356 51.1963H229.978V50.7089H233.301V51.1963H231.924V54.6287H231.356V51.1963Z" fill="#1B1918"/>
<path fill-rule="evenodd" clip-rule="evenodd" d="M236.79 54.1416V54.6287H233.875V50.7089H236.71V51.1963H234.449V52.4002H236.464V52.8759H234.449V54.1416H236.79Z" fill="#1B1918"/>
<path fill-rule="evenodd" clip-rule="evenodd" d="M241.289 54.6288L241.283 51.773L239.831 54.1529H239.567L238.116 51.7898V54.6288H237.565V50.709H238.036L239.711 53.4642L241.364 50.709H241.834L241.84 54.6288H241.289Z" fill="#1B1918"/>
<path fill-rule="evenodd" clip-rule="evenodd" d="M245.393 51.4372V52.473H247.252V53.2007H245.393V54.6288H244.463V50.709H247.499V51.4372H245.393Z" fill="#1B1918"/>
<path fill-rule="evenodd" clip-rule="evenodd" d="M248.554 54.231C248.235 53.9216 248.075 53.479 248.075 52.9041V50.709H249.005V52.8704C249.005 53.5724 249.304 53.923 249.9 53.923C250.19 53.923 250.413 53.8384 250.566 53.6686C250.719 53.4985 250.795 53.2328 250.795 52.8704V50.709H251.714V52.9041C251.714 53.479 251.555 53.9216 251.235 54.231C250.915 54.5412 250.468 54.696 249.895 54.696C249.321 54.696 248.874 54.5412 248.554 54.231Z" fill="#1B1918"/>
<path fill-rule="evenodd" clip-rule="evenodd" d="M253.444 51.4484H252.159V50.709H255.66V51.4484H254.375V54.6288H253.444V51.4484Z" fill="#1B1918"/>
<path fill-rule="evenodd" clip-rule="evenodd" d="M256.584 54.231C256.264 53.9216 256.104 53.479 256.104 52.9041V50.709H257.034V52.8704C257.034 53.5724 257.333 53.923 257.929 53.923C258.22 53.923 258.442 53.8384 258.595 53.6686C258.748 53.4985 258.825 53.2328 258.825 52.8704V50.709H259.743V52.9041C259.743 53.479 259.583 53.9216 259.263 54.231C258.944 54.5412 258.498 54.696 257.924 54.696C257.35 54.696 256.903 54.5412 256.584 54.231Z" fill="#1B1918"/>
<path fill-rule="evenodd" clip-rule="evenodd" d="M263.217 54.6288L262.442 53.5369H262.396H261.587V54.6288H260.657V50.709H262.396C262.752 50.709 263.061 50.7671 263.323 50.8828C263.585 50.9984 263.787 51.1625 263.928 51.3756C264.07 51.5882 264.141 51.8401 264.141 52.1313C264.141 52.4225 264.069 52.6737 263.925 52.8844C263.782 53.0955 263.579 53.2569 263.315 53.3687L264.215 54.6288H263.217ZM262.982 51.6247C262.836 51.5072 262.624 51.4483 262.344 51.4483H261.587V52.8144H262.344C262.624 52.8144 262.836 52.755 262.982 52.6351C263.126 52.5158 263.199 52.348 263.199 52.1313C263.199 51.911 263.126 51.7422 262.982 51.6247Z" fill="#1B1918"/>
<path fill-rule="evenodd" clip-rule="evenodd" d="M265.665 54.4327C265.329 54.2574 265.067 54.0156 264.878 53.7076C264.689 53.3998 264.594 53.0535 264.594 52.669C264.594 52.2845 264.689 51.9383 264.878 51.6303C265.067 51.3225 265.329 51.0807 265.665 50.9049C265.999 50.7296 266.376 50.642 266.792 50.642C267.21 50.642 267.584 50.7296 267.917 50.9049C268.25 51.0807 268.512 51.3225 268.703 51.6303C268.895 51.9383 268.99 52.2845 268.99 52.669C268.99 53.0535 268.895 53.3998 268.703 53.7076C268.512 54.0156 268.25 54.2574 267.917 54.4327C267.584 54.6085 267.21 54.696 266.792 54.696C266.376 54.696 265.999 54.6085 265.665 54.4327ZM267.435 53.7636C267.626 53.6573 267.777 53.5088 267.885 53.3183C267.995 53.1281 268.05 52.9116 268.05 52.669C268.05 52.4264 267.995 52.2097 267.885 52.0192C267.777 51.829 267.626 51.6806 267.435 51.5741C267.244 51.4677 267.029 51.4146 266.792 51.4146C266.555 51.4146 266.341 51.4677 266.149 51.5741C265.958 51.6806 265.808 51.829 265.699 52.0192C265.59 52.2097 265.536 52.4264 265.536 52.669C265.536 52.9116 265.59 53.1281 265.699 53.3183C265.808 53.5088 265.958 53.6573 266.149 53.7636C266.341 53.87 266.555 53.9229 266.792 53.9229C267.029 53.9229 267.244 53.87 267.435 53.7636Z" fill="#1B1918"/>
<path fill-rule="evenodd" clip-rule="evenodd" d="M269.418 54.553C269.341 54.4801 269.303 54.388 269.303 54.2761C269.303 54.1679 269.341 54.0772 269.418 54.0043C269.495 53.9315 269.586 53.8952 269.694 53.8952C269.8 53.8952 269.89 53.9305 269.963 54.0015C270.036 54.0725 270.072 54.1642 270.072 54.2761C270.072 54.388 270.035 54.4801 269.961 54.553C269.886 54.6261 269.796 54.6621 269.694 54.6621C269.586 54.6621 269.495 54.6261 269.418 54.553Z" fill="#1B1918"/>
<path fill-rule="evenodd" clip-rule="evenodd" d="M215.672 16.5646C216.006 16.3886 216.389 16.3004 216.82 16.3004C217.477 16.3004 218.039 16.5277 218.505 16.9823L219.221 16.3004C218.936 15.9825 218.583 15.7411 218.165 15.5763C217.745 15.4116 217.279 15.3293 216.767 15.3293C216.138 15.3293 215.572 15.4612 215.069 15.7254C214.565 15.9896 214.17 16.3546 213.885 16.8203C213.6 17.2863 213.458 17.8115 213.458 18.3969C213.458 18.9818 213.6 19.5074 213.885 19.9728C214.17 20.4388 214.564 20.8036 215.064 21.0679C215.565 21.3321 216.127 21.4642 216.75 21.4642C217.192 21.4642 217.623 21.3986 218.042 21.2682C218.462 21.1375 218.828 20.9499 219.142 20.7058V18.3286H218.068V20.1861C217.707 20.3906 217.288 20.4929 216.811 20.4929C216.386 20.4929 216.006 20.4019 215.672 20.2202C215.336 20.0382 215.074 19.7884 214.886 19.4702C214.696 19.1522 214.602 18.7942 214.602 18.3969C214.602 17.9875 214.696 17.6242 214.886 17.3059C215.074 16.988 215.336 16.7409 215.672 16.5646Z" fill="#1B1918"/>
<path fill-rule="evenodd" clip-rule="evenodd" d="M225.527 15.7255C225.025 15.4613 224.463 15.3292 223.841 15.3292C223.218 15.3292 222.656 15.4613 222.156 15.7255C221.654 15.9897 221.261 16.3562 220.976 16.8243C220.691 17.293 220.548 17.8172 220.548 18.3968C220.548 18.9761 220.691 19.5003 220.976 19.9688C221.261 20.4376 221.654 20.8035 222.156 21.0678C222.656 21.332 223.218 21.4643 223.841 21.4643C224.463 21.4643 225.025 21.332 225.527 21.0678C226.027 20.8035 226.419 20.4387 226.705 19.9729C226.99 19.5073 227.133 18.9817 227.133 18.3968C227.133 17.8115 226.99 17.2862 226.705 16.8204C226.419 16.3545 226.027 15.9897 225.527 15.7255ZM225.71 19.4746C225.524 19.7955 225.267 20.0454 224.941 20.2244C224.615 20.4033 224.248 20.4928 223.841 20.4928C223.433 20.4928 223.066 20.4033 222.741 20.2244C222.414 20.0454 222.159 19.7955 221.971 19.4746C221.786 19.1538 221.692 18.7941 221.692 18.3968C221.692 17.999 221.786 17.6398 221.971 17.3188C222.159 16.9979 222.414 16.7478 222.741 16.5691C223.066 16.3902 223.433 16.3005 223.841 16.3005C224.248 16.3005 224.615 16.3902 224.941 16.5691C225.267 16.7478 225.524 16.9979 225.71 17.3188C225.896 17.6398 225.989 17.999 225.989 18.3968C225.989 18.7941 225.896 19.1538 225.71 19.4746Z" fill="#1B1918"/>
<path fill-rule="evenodd" clip-rule="evenodd" d="M230.896 20.0157L228.862 15.4143H227.63L230.302 21.379H231.42L234.084 15.4143H232.949L230.896 20.0157Z" fill="#1B1918"/>
<path fill-rule="evenodd" clip-rule="evenodd" d="M236.215 18.8058H239.168V17.8939H236.215V16.3432H239.543V15.4143H235.08V21.3789H239.665V20.45H236.215V18.8058Z" fill="#1B1918"/>
<path fill-rule="evenodd" clip-rule="evenodd" d="M246.062 18.6948C246.285 18.3711 246.398 17.9848 246.398 17.5362C246.398 17.0987 246.293 16.7211 246.084 16.4026C245.874 16.0846 245.573 15.8406 245.179 15.6702C244.787 15.4998 244.325 15.4143 243.795 15.4143H241.28V21.3789H242.416V19.6405H243.795C243.9 19.6405 243.979 19.638 244.031 19.6321L245.28 21.3789H246.503L245.097 19.4192C245.516 19.2601 245.838 19.0187 246.062 18.6948ZM243.743 18.7288H242.416V16.3516H243.743C244.238 16.3516 244.613 16.454 244.869 16.6583C245.126 16.8628 245.254 17.1555 245.254 17.5362C245.254 17.9166 245.126 18.2108 244.869 18.4182C244.613 18.6253 244.238 18.7288 243.743 18.7288Z" fill="#1B1918"/>
<path fill-rule="evenodd" clip-rule="evenodd" d="M252.319 19.4533L248.948 15.4144H248.013V21.379H249.14V17.3401L252.511 21.379H253.446V15.4144H252.319V19.4533Z" fill="#1B1918"/>
<path fill-rule="evenodd" clip-rule="evenodd" d="M259.977 15.7255C259.477 15.4613 258.915 15.3292 258.292 15.3292C257.669 15.3292 257.108 15.4613 256.607 15.7255C256.106 15.9897 255.713 16.3562 255.428 16.8243C255.143 17.293 255 17.8172 255 18.3968C255 18.9761 255.143 19.5003 255.428 19.9688C255.713 20.4376 256.106 20.8035 256.607 21.0678C257.108 21.332 257.669 21.4643 258.292 21.4643C258.915 21.4643 259.477 21.332 259.977 21.0678C260.479 20.8035 260.871 20.4387 261.156 19.9729C261.442 19.5073 261.585 18.9817 261.585 18.3968C261.585 17.8115 261.442 17.2862 261.156 16.8204C260.871 16.3545 260.479 15.9897 259.977 15.7255ZM260.161 19.4746C259.974 19.7955 259.718 20.0454 259.393 20.2244C259.067 20.4033 258.7 20.4928 258.292 20.4928C257.885 20.4928 257.518 20.4033 257.192 20.2244C256.866 20.0454 256.609 19.7955 256.423 19.4746C256.237 19.1538 256.144 18.7941 256.144 18.3968C256.144 17.999 256.237 17.6398 256.423 17.3188C256.609 16.9979 256.866 16.7478 257.192 16.5691C257.518 16.3902 257.885 16.3005 258.292 16.3005C258.7 16.3005 259.067 16.3902 259.393 16.5691C259.718 16.7478 259.974 16.9979 260.161 17.3188C260.347 17.6398 260.441 17.999 260.441 18.3968C260.441 18.7941 260.347 19.1538 260.161 19.4746Z" fill="#1B1918"/>
<path fill-rule="evenodd" clip-rule="evenodd" d="M270.309 15.7852C269.802 15.538 269.222 15.4143 268.571 15.4143H265.898V21.379H268.571C269.222 21.379 269.802 21.2554 270.309 21.0085C270.815 20.7611 271.208 20.4118 271.487 19.96C271.767 19.5086 271.907 18.9874 271.907 18.3968C271.907 17.8058 271.767 17.2847 271.487 16.8332C271.208 16.3816 270.815 16.0321 270.309 15.7852ZM270.488 19.4746C270.305 19.784 270.043 20.0229 269.702 20.1902C269.361 20.3577 268.966 20.4416 268.519 20.4416H267.034V16.3517H268.519C268.966 16.3517 269.361 16.4355 269.702 16.603C270.043 16.7705 270.305 17.0092 270.488 17.3187C270.671 17.6287 270.763 17.9875 270.763 18.3968C270.763 18.8058 270.671 19.1649 270.488 19.4746Z" fill="#1B1918"/>
<path fill-rule="evenodd" clip-rule="evenodd" d="M279.182 16.8203C278.897 16.3546 278.503 15.9896 278.003 15.7254C277.502 15.4612 276.94 15.3293 276.317 15.3293C275.694 15.3293 275.132 15.4612 274.632 15.7254C274.131 15.9896 273.737 16.3561 273.452 16.8244C273.167 17.2931 273.025 17.8171 273.025 18.3969C273.025 18.9761 273.167 19.5001 273.452 19.9688C273.737 20.4375 274.131 20.8036 274.632 21.0679C275.132 21.3321 275.694 21.4642 276.317 21.4642C276.94 21.4642 277.502 21.3321 278.003 21.0679C278.503 20.8036 278.897 20.4388 279.182 19.9728C279.467 19.5074 279.609 18.9818 279.609 18.3969C279.609 17.8115 279.467 17.2863 279.182 16.8203ZM278.186 19.4746C278 19.7956 277.744 20.0455 277.417 20.2243C277.091 20.4034 276.725 20.4929 276.317 20.4929C275.91 20.4929 275.543 20.4034 275.217 20.2243C274.891 20.0455 274.635 19.7956 274.448 19.4746C274.262 19.1537 274.169 18.7942 274.169 18.3969C274.169 17.999 274.262 17.6399 274.448 17.3187C274.635 16.9979 274.891 16.7479 275.217 16.569C275.543 16.3901 275.91 16.3004 276.317 16.3004C276.725 16.3004 277.091 16.3901 277.417 16.569C277.744 16.7479 278 16.9979 278.186 17.3187C278.373 17.6399 278.465 17.999 278.465 18.3969C278.465 18.7942 278.373 19.1537 278.186 19.4746Z" fill="#1B1918"/>
<path fill-rule="evenodd" clip-rule="evenodd" d="M225.748 24.5774C226.93 25.0968 227.842 25.8383 228.484 26.8023C229.126 27.7666 229.448 28.9001 229.448 30.202C229.448 31.5038 229.126 32.6329 228.484 33.5885C227.842 34.5448 226.93 35.2819 225.748 35.8014C224.565 36.3204 223.172 36.5802 221.567 36.5802H218.476V41.1042H213.459V23.7987H221.567C223.172 23.7987 224.565 24.0584 225.748 24.5774ZM223.593 32.0683C224.118 31.6317 224.38 31.0096 224.38 30.202C224.38 29.3944 224.118 28.768 223.593 28.3228C223.07 27.8781 222.293 27.6553 221.263 27.6553H218.476V32.7235H221.263C222.293 32.7235 223.07 32.5053 223.593 32.0683Z" fill="#007521"/>
<path fill-rule="evenodd" clip-rule="evenodd" d="M230.359 23.7987H235.375V41.1041H230.359V23.7987Z" fill="#007521"/>
<path fill-rule="evenodd" clip-rule="evenodd" d="M250.325 37.7419H242.825L241.431 41.1042H236.313L244.142 23.7987H249.083L256.937 41.1042H251.718L250.325 37.7419ZM248.855 34.1325L246.574 28.5947L244.294 34.1325H248.855Z" fill="#007521"/>
<path fill-rule="evenodd" clip-rule="evenodd" d="M257.99 39.3488C256.528 37.9482 255.797 35.9621 255.797 33.3909V23.7987H260.815V33.2424C260.815 36.0116 261.937 37.3957 264.184 37.3957C266.414 37.3957 267.529 36.0116 267.529 33.2424V23.7987H272.47V33.3909C272.47 35.9621 271.739 37.9482 270.278 39.3488C268.817 40.7499 266.768 41.4503 264.134 41.4503C261.498 41.4503 259.45 40.7499 257.99 39.3488Z" fill="#007521"/>
<path fill-rule="evenodd" clip-rule="evenodd" d="M278.855 23.7457H273.838V26.8913L278.855 23.7457Z" fill="#007521"/>
<path fill-rule="evenodd" clip-rule="evenodd" d="M273.838 28.3132V41.051H278.855V25.1674L273.838 28.3132Z" fill="#007521"/>
</g>
<defs>
<clipPath id="clip0_10_109">
<rect width="280" height="70" fill="white"/>
</clipPath>
</defs>
</svg>
